<svg xmlns="http://www.w3.org/2000/svg" viewBox="0 0 24.29 36.48"><defs><style>.cls-1{fill:#231f20;}</style></defs><title>Asset 37</title><g id="Layer_2" data-name="Layer 2"><g id="Layer_1-2" data-name="Layer 1"><path class="cls-1" d="M24.29,28.22l-2,.72v5.57l-5.47,2v0l-6.1-1.3V28.42L0,26.16l.1-.29v0L8,2h0L13.34,0V0h.14l0,0L22.32,2V22.66l2,.43ZM8.21,2.35.48,25.68,5.42,24,12.29,3.22ZM5.57,24.24.67,26,10.8,28.13l4.9-1.73Zm10.85,8.64.24,0V29.38l2-.72V25.3l-2-.38V4.18l-4.08-.86L5.76,24l10.66,2.26Zm.14-24.29v13.2l-5.33,1.87v.1l-.1,0h0l-4-.86L10.9,10.51h0l5.42-2a0,0,0,0,1,0,0ZM10.9,21.22v-9.6L7.54,22.37ZM7.68,22.66l3.22.67V21.55ZM13.2.43,8.59,2.06l3.79.86ZM11,28.37v6.38l5-1.82V26.59Zm1.49-7.73L16.13,9l-4.9,1.78V21.07Zm-1.3.77v1.92L16,21.65l-3.36-.72Zm.14,13.54L16.66,36V33.26l-.34,0ZM16.75,3.89l4.9-1.78L13.58.34,12.72,3ZM12.82,20.64l3.46.72V9.65Zm4.13,3.84,5-1.82V2.35l-5,1.78Zm5,9.6V29l-3.07,1.1v0l0,0,0,0v0l-1.87-.38V33Zm-5-.72V36.1l4.9-1.73Zm1.87-8.3,4.9-1.78-1.58-.34-4.9,1.78ZM18.62,29l-1.39.48,1.39.34Zm3.5-1.58,1.82.43V23.52l-5,1.82v3.22L22,27.46v0ZM18.91,28.9v.91L22,28.7v-.91Zm3.41-.29,1.44-.53-1.44-.29Z"/></g></g></svg>