<svg xmlns="http://www.w3.org/2000/svg" viewBox="0 0 21.65 36.05"><defs><style>.cls-1{fill:#231f20;}</style></defs><title>Asset 7</title><g id="Layer_2" data-name="Layer 2"><g id="Layer_1-2" data-name="Layer 1"><path class="cls-1" d="M10.32,0A45.92,45.92,0,0,1,15.5,1,7.48,7.48,0,0,1,19.85,3.7a7.44,7.44,0,0,1,1.8,4.8v5h0L17.47,15l4.18.86V28.94a4.66,4.66,0,0,1-2.78,4.61l0,.1-5.42,1.92a6.82,6.82,0,0,1-2.16.48A6.38,6.38,0,0,1,10,35.9L6.1,35.09a7.4,7.4,0,0,1-4.32-2.71A7.41,7.41,0,0,1,0,27.6V7.1A4.6,4.6,0,0,1,3.07,2.4l0,0,5-1.82A7.1,7.1,0,0,1,10.32,0ZM.34,7.1V27.6a7.14,7.14,0,0,0,1.49,4.32L7,30,7,30a8.11,8.11,0,0,1-1.54-4.37V5.09A5.34,5.34,0,0,1,6,2.5a5.36,5.36,0,0,0-1.2-.14A4.21,4.21,0,0,0,1.58,3.72,4.83,4.83,0,0,0,.34,7.1ZM2,32.16a6.9,6.9,0,0,0,3.65,2.45q.53.14,4.42,1a6,6,0,0,0,1.25.14,4.33,4.33,0,0,0,3.79-2q-3.65-.77-4.37-1A8,8,0,0,1,7.2,30.34Zm5-30.91-2.3.82a8,8,0,0,1,1.49.14A4.61,4.61,0,0,1,7.06,1.25Zm-.67,1.3a4.79,4.79,0,0,0-.62,2.4V25.58a6.79,6.79,0,0,0,1,3.55V9.07q0-1.1.62-1.39l0-.1q5.76-2,5.9-2a2.06,2.06,0,0,1,.72.14,7.68,7.68,0,0,0-3.46-2.26Q10.22,3.41,6.38,2.54Zm13.2,1.39A7.3,7.3,0,0,0,15.41,1.3L11.52.48a5.79,5.79,0,0,0-1.2-.14A4.5,4.5,0,0,0,8.59.67a3.79,3.79,0,0,0-2,1.63q3.74.77,4.32,1a7.73,7.73,0,0,1,3.5,2.5ZM12.19,14.78v0l-3.07-.67V9.55q0-1.63-1.3-1.63Q7.1,7.92,7.1,9V29a3.47,3.47,0,0,0,0,.58l2-.67v-9.5l-1-.24v-3l.24,0,0-.1ZM7.3,29.9a1.48,1.48,0,0,0,1.15.67q.67,0,.67-1.06v-.24Zm4.9-22.7a2.67,2.67,0,0,1,.14-1L8.16,7.68a1.17,1.17,0,0,1,1,.62Zm3.07,26.3a4.64,4.64,0,0,0,.62-2.4V18.19l-1-.19v9.41a1.71,1.71,0,0,1-.34,1.15l0,0-.62.24-4.8,1.68a.8.8,0,0,1-.72.38.9.9,0,0,1-.29,0,8,8,0,0,0,3.36,1.78Q12.19,32.88,15.26,33.5ZM8.4,16.61v2.11l3.79-1.3Zm1,2.54,2.83-1v-.43L8.59,19Zm-.62-2.78,3.46.72v-2Zm.77-2.5v-.14l2.69-1V7.54L9.26,8.59a2.15,2.15,0,0,1,.19,1v4.27Zm0,15.26a3.64,3.64,0,0,1-.1,1l3.94-1.39a1.33,1.33,0,0,1-.82-.67Zm0-.34,2.88-1a2.43,2.43,0,0,1-.14-.86V18.48l-2.74,1Zm.43-14.88,2.3.48V13.1Zm3-8h0q-.43.14-.43,1V7.1l1.78-.62a1.14,1.14,0,0,0-1.06-.58A1.09,1.09,0,0,0,12.91,6Zm-.38,6.72,2-.72V7.44a2.43,2.43,0,0,0-.1-.67l-1.92.67Zm1,1.49,2.35.53V12.34L15,12.14,12.53,13V14.5l.34,0,.67-.24Zm0,2.78V15l-.62-.14-.38.14v2.11l.19,0Zm-1,.67V18l1-.34-.72-.19Zm2,9.79V17.9l-.43-.1-1.58.58v8.54q0,1.39,1.06,1.58a.92.92,0,0,1,.29,0l.38-.14A1.41,1.41,0,0,0,14.54,27.41Zm-.48-9.94.34-.1-.72-.19-.34.14Zm-.62-2.78h.1v0Zm.38-.14v.24l2.06.43V15Zm7.34,1.58-4.27-.91-.67.24v.14l-2.4-.53V16.9l1.06.24c0,.19,0,.32,0,.38h0v.14l1.25.24ZM14.54,34.85,17,34a6.19,6.19,0,0,1-1.54-.1A5.15,5.15,0,0,1,14.54,34.85Zm6.77-21.7V8.5a6.94,6.94,0,0,0-1.54-4.27L14.59,6A7.54,7.54,0,0,1,16,8.88,15.43,15.43,0,0,1,16.22,12ZM15,11.81l.91.19V10.51a6.83,6.83,0,0,0-1.1-3.65,2.42,2.42,0,0,1,.1.67v4.27ZM16.8,33.7a4.25,4.25,0,0,0,3.26-1.34,4.81,4.81,0,0,0,1.25-3.41V16.42l-5.09,1.82V31a5.09,5.09,0,0,1-.62,2.54A5.32,5.32,0,0,0,16.8,33.7Zm0-18.82L21,13.39l-4.8-1v2.35Zm-.62.19v0l.1,0Z"/></g></g></svg>