<svg xmlns="http://www.w3.org/2000/svg" viewBox="0 0 12.62 35.95"><defs><style>.cls-1{fill:#231f20;}</style></defs><title>Asset 13</title><g id="Layer_2" data-name="Layer 2"><g id="Layer_1-2" data-name="Layer 1"><path class="cls-1" d="M5.52,0l7.1,1.54v32.4h-.1v0L7.1,35.9v0L0,34.46,0,2,5.52,0Zm0,32.16V3.55L.34,2.45V34ZM5.52.38l-5,1.78,5,1.06ZM.58,34.27l6.19,1.3V32.69l-1.11-.24ZM12,1.73,5.86.38V3.26l1.05.24ZM6.77,32.4V3.79L5.86,3.6V32.21ZM7.1,3.79V32.45l5.18,1.1V1.92Zm0,31.78L12,33.84,7.1,32.78Z"/></g></g></svg>