<svg xmlns="http://www.w3.org/2000/svg" viewBox="0 0 18.91 37.49"><defs><style>.cls-1{fill:#231f20;}</style></defs><title>Asset 16</title><g id="Layer_2" data-name="Layer 2"><g id="Layer_1-2" data-name="Layer 1"><path class="cls-1" d="M18.91,35.52l-5.28,1.87v.1L0,34.61V2H0L0,2,5.28.1V0h.1l.1,0V.1l6.91,1.44,0,26.54,6.48,1.34ZM.34,34.13,5.28,32.4V3.46L.34,2.4ZM5.28.43.48,2.11l4.8,1.06Zm-4.75,34L13.3,37.1V34.32L5.47,32.64ZM11.81,1.73,5.62.43V3.22l1.25.29ZM5.62,32.35,13.3,34v-2.3L6.77,30.29V3.79L5.62,3.55Zm1.49-2.5L12,28.08V2L7.1,3.74Zm5.18-1.49L7.34,30.1l6.1,1.3,4.9-1.73Zm1.34,3.31v2.4l4.94,1.06V29.9Zm4.7,3.7-4.7-1v2.69Z"/></g></g></svg>