<svg xmlns="http://www.w3.org/2000/svg" viewBox="0 0 12.53 9.26"><defs><style>.cls-1{fill:#231f20;}</style></defs><title>Asset 44</title><g id="Layer_2" data-name="Layer 2"><g id="Layer_1-2" data-name="Layer 1"><path class="cls-1" d="M8.26,0a4,4,0,0,1,3,1.37,4.34,4.34,0,0,1,1.29,3A2.6,2.6,0,0,1,10.85,7l0,.1L5.42,9a2.75,2.75,0,0,1-1.15.24,4.06,4.06,0,0,1-3-1.32A4.16,4.16,0,0,1,0,5a2.73,2.73,0,0,1,1.06-2.3,4.63,4.63,0,0,1,1.25-.57L6.68.5A8.36,8.36,0,0,1,8.26,0ZM1.92,2.5A2.4,2.4,0,0,0,.34,4.95,3.69,3.69,0,0,0,.82,6.77L6,5a4.59,4.59,0,0,1-.53-1.45A3.56,3.56,0,0,0,2.83,2.3,2.37,2.37,0,0,0,2,2.5ZM1,7a3.76,3.76,0,0,0,3.26,1.9,2.38,2.38,0,0,0,1.8-.72,2.54,2.54,0,0,0,.7-1.83V5.94a5,5,0,0,1-.63-.77Zm4.46-4a2.68,2.68,0,0,1,.62-2l-2.78,1A4.07,4.07,0,0,1,5.47,3.07Zm6-.82A3.84,3.84,0,0,0,8.26.34a2.44,2.44,0,0,0-.86.15l0,.1L6.82.77Q5.76,1.11,5.76,3a2,2,0,0,0,0,.39q.29.34.58.73ZM6,4a3.84,3.84,0,0,0,.67,1.3A5.56,5.56,0,0,0,6,4ZM7.1,6.29a2.58,2.58,0,0,1-.72,2.06l3.07-1.1A4.12,4.12,0,0,1,7.1,6.29ZM9.7,7a2.47,2.47,0,0,0,2.54-2.55,3.69,3.69,0,0,0-.53-1.88L6.53,4.36a3.44,3.44,0,0,1,.53,1.44A3.63,3.63,0,0,0,9.7,7Z"/></g></g></svg>