<svg xmlns="http://www.w3.org/2000/svg" viewBox="0 0 20.5 34.32"><defs><style>.cls-1{fill:#231f20;}</style></defs><title>Asset 47</title><g id="Layer_2" data-name="Layer 2"><g id="Layer_1-2" data-name="Layer 1"><path class="cls-1" d="M9.22,0a6,6,0,0,1,1.25.14L14.35,1A7.52,7.52,0,0,1,18.7,3.67a7.35,7.35,0,0,1,1.8,4.78v7.92a4,4,0,0,1-2.26,3.94v0l-4,1.82a22.35,22.35,0,0,0,0,2.35l0,0v0l-2.26,1a4.1,4.1,0,0,1,2.5,3.89,2.67,2.67,0,0,1-1.63,2.69v0L8.88,33.94a3.71,3.71,0,0,1-1.44.38,4.11,4.11,0,0,1-3-1.32,4.22,4.22,0,0,1-1.3-3A2.77,2.77,0,0,1,4.9,27.26L7.63,26l-4.75-1v-4a4.54,4.54,0,0,1,2.69-4.51L8.93,15l.24-.14V13.3l-2.11,1v.1L0,12.86V7.06A4.63,4.63,0,0,1,2.83,2.4v0L6.72.58A5.91,5.91,0,0,1,9.22,0ZM4.94,2.3A4.28,4.28,0,0,0,1.58,3.62,4.79,4.79,0,0,0,.29,7.06v5.42L4.22,10.7V5A5.05,5.05,0,0,1,4.94,2.3ZM.62,12.67,6.77,14V11.38l-2.3-.48Zm6.1,4A3.09,3.09,0,0,0,4.08,18.1a5.1,5.1,0,0,0-.86,3v3.55l3.94-1.78V19.1a5.93,5.93,0,0,1,.43-2.35A4,4,0,0,0,6.72,16.66ZM3.46,24.82l4.66,1a9.58,9.58,0,0,1,1.54-.67V23.57l-2.3-.48ZM5.9,27.41a2.31,2.31,0,0,0-1.78.72A2.57,2.57,0,0,0,3.46,30a3.79,3.79,0,0,0,.48,1.87l4-1.82a4,4,0,0,1-.58-2l0-.24A3.72,3.72,0,0,0,5.9,27.41ZM4.08,32.06a3.81,3.81,0,0,0,3.36,2,2.33,2.33,0,0,0,1-.19v0a2.26,2.26,0,0,0,1.44-1.87,4.53,4.53,0,0,1-1.78-1.63ZM5.62,1.44,4.32,2a6.63,6.63,0,0,1,.82,0C5.3,1.78,5.46,1.6,5.62,1.44Zm10,18.72a4.53,4.53,0,0,0,.34-1.82V10.42a6.94,6.94,0,0,0-1.73-4.56A7.38,7.38,0,0,0,10,3.26L6.14,2.45,5.28,2.3A4.82,4.82,0,0,0,4.51,5v5.57l2.26.48v-2q0-1.06.58-1.34l0,0,4.08-1.82q.14-.24.67-.24a1.55,1.55,0,0,1,1.3.62v0l0,0a2.32,2.32,0,0,1,.34,1.34v7.58h0L9.5,17v.1L7.92,16.8a5.3,5.3,0,0,0-.48,2.3v3.7l2.21.48V22l.19-.14L13.92,20v0l.14-.14ZM18.34,3.74a7.43,7.43,0,0,0-4-2.45L10.37.43A6,6,0,0,0,9.12.29,4.56,4.56,0,0,0,7.25.67,4.94,4.94,0,0,0,5.47,2q.1,0,4.66,1a7.49,7.49,0,0,1,4.22,2.54ZM7.87,26.26,6,27.07a4.65,4.65,0,0,1,1.39.34A2.62,2.62,0,0,1,7.87,26.26Zm-1.1-9.89a4.89,4.89,0,0,1,1,.1,4.59,4.59,0,0,1,.53-.77Zm2.4-6.82q0-1.63-1.34-1.63-.77,0-.77,1.15v2.06l2.11.48ZM7.06,13.92l2.11-1V11.9l-2.11-.43ZM9.89,31.39a3.8,3.8,0,0,0-2.21-3.5V28a3.93,3.93,0,0,0,2.21,3.6Zm3.65-3.94a4.13,4.13,0,0,0-2-1.73L10,26.45v.1l-1.63-.34a2.2,2.2,0,0,0-.62,1.34,4.37,4.37,0,0,1,1.82,1.68ZM9.17,15.26a2.91,2.91,0,0,0-1.1,1.25l1.1.24Zm-.1-7.1L11,7.3a3.35,3.35,0,0,1,.1-1l-3,1.3A1.34,1.34,0,0,1,9.07,8.16Zm.19,17.47-.62.29,1,.24v-.72a1.88,1.88,0,0,0-.38.14ZM11,12V7.63L9.26,8.4a11.61,11.61,0,0,1,.24,3.26ZM9.5,13.15v1.54A3.59,3.59,0,0,1,11,14.35a17.44,17.44,0,0,1,2.4.43V7.58a2.14,2.14,0,0,0-.19-1l-2,.86v4.75a.14.14,0,0,0,0,.1l0,0v0Zm1.25-.91L9.5,12v.82ZM9.5,15.12V16.7l3.7-1.63A16,16,0,0,0,11,14.69,3.28,3.28,0,0,0,9.55,15l0,0Zm.14,18.14,2-.91a4,4,0,0,1-1.49-.29A3.13,3.13,0,0,1,9.65,33.26Zm2-1.25a2.28,2.28,0,0,0,1.78-.74,2.66,2.66,0,0,0,.67-1.85,3.64,3.64,0,0,0-.43-1.73l-4,1.82a3.29,3.29,0,0,1,.53,1.87l0,.34A4.23,4.23,0,0,0,11.66,32ZM10,22.18v1.15l3.94.82V22.32a4,4,0,0,1-1.49.29A16.76,16.76,0,0,1,10,22.18Zm1.63,3.22,2.06-1L10,23.66V25.1A3.85,3.85,0,0,1,11.62,25.39Zm-1.63,0v.67l1.2-.53a3.54,3.54,0,0,0-.91-.14Zm.38-3.5a12.67,12.67,0,0,0,2.06.38A3.28,3.28,0,0,0,13.92,22V20.35ZM11.28,7v.14l1.78-.82A1.37,1.37,0,0,0,12,6a1.07,1.07,0,0,0-.34,0V6Q11.28,6.19,11.28,7Zm2.93,14.78a3.58,3.58,0,0,0,1.25-1.34l-1.25-.24Zm6-5.42V8.45A6.94,6.94,0,0,0,18.53,4l-4,1.78a7.31,7.31,0,0,1,1.73,4.66v7.92a5.27,5.27,0,0,1-.34,1.92,6.14,6.14,0,0,0,.77,0,3.15,3.15,0,0,0,2.54-1.15A4.21,4.21,0,0,0,20.21,16.37Zm-5,5,1.78-.82a4.61,4.61,0,0,1-1.15,0A3.3,3.3,0,0,1,15.17,21.41Z"/></g></g></svg>