<svg xmlns="http://www.w3.org/2000/svg" viewBox="0 0 21.6 35.47"><defs><style>.cls-1{fill:#231f20;}</style></defs><title>Asset 25</title><g id="Layer_2" data-name="Layer 2"><g id="Layer_1-2" data-name="Layer 1"><path class="cls-1" d="M20.5,4.56v0a8.08,8.08,0,0,1,1.1,3.74v5.86L18,15.46A6,6,0,0,1,20.64,18a7.32,7.32,0,0,1,1,3.6v6.86A4.7,4.7,0,0,1,18.91,33v0L13.49,35a6.76,6.76,0,0,1-2.11.48A7.26,7.26,0,0,1,10,35.28l-3.89-.82a7.64,7.64,0,0,1-4.32-2.69A7.14,7.14,0,0,1,0,27.07V22H0l4.08-1.44a5.71,5.71,0,0,1-3-2.26A6.09,6.09,0,0,1,0,14.78V6.91A4.47,4.47,0,0,1,3.46,2.16L8.06.53A7.47,7.47,0,0,1,10.27,0a49,49,0,0,1,5.18,1,7.57,7.57,0,0,1,5,3.6ZM.34,6.91v7.87A5.74,5.74,0,0,0,1.3,18l5.14-1.82a5.88,5.88,0,0,1-1.06-3.31V4.94A5.08,5.08,0,0,1,6,2.4a7.05,7.05,0,0,0-1.15-.1A4.3,4.3,0,0,0,1.61,3.62,4.55,4.55,0,0,0,.34,6.91Zm0,20.16a7.09,7.09,0,0,0,3.31,6v0L8.74,31.2a7.31,7.31,0,0,1-3.36-6.1V23.52l-5-1.1Zm4.32-6.34-4,1.44,4.75,1V20.93Q5.14,20.88,4.66,20.74ZM1.49,18.19a5.61,5.61,0,0,0,3.12,2.26l.77-.29v-.1l4.75,1,4-1.44-4-.82a5.46,5.46,0,0,1-3.46-2.45ZM3.94,33.26a6.08,6.08,0,0,0,2.26.91l3.89.82a6.2,6.2,0,0,0,1.3.14,4.3,4.3,0,0,0,3.7-1.87Q14,33.07,12,32.64A7.74,7.74,0,0,1,9,31.44ZM7,1.2,4.85,2a6.42,6.42,0,0,1,1.34.14A5.39,5.39,0,0,1,7,1.2ZM5.38,20.59v-.1l-.19,0Zm.34-7.78a5.62,5.62,0,0,0,1,3.22V8.93a1.44,1.44,0,0,1,.43-1.2v0l5.38-1.92q.14-.24.67-.24a1.73,1.73,0,0,1,1,.34,6.28,6.28,0,0,0-3.5-2.45q-.82-.19-4.37-.91a4.72,4.72,0,0,0-.62,2.45Zm3.46,8.59.38-.14-3.84-.82v.24Zm0,.34L5.71,21v2.26l1.3.29,2.16-.77ZM5.71,23.57V25.1a6.49,6.49,0,0,0,1.06,3.5q0-.14,0-4.8ZM20.16,4.66A7.38,7.38,0,0,0,15.41,1.3L11.52.43a6.14,6.14,0,0,0-1.25-.1A5.73,5.73,0,0,0,9,.48v0A4.63,4.63,0,0,0,6.53,2.21l.86.19a37.59,37.59,0,0,1,4,1A7.89,7.89,0,0,1,15,6.48ZM7,16.42a4.86,4.86,0,0,0,3.17,2.06l4.27.91a5.15,5.15,0,0,0-3-2.06Zm0-7.58v7.1l3-1.06-.91-.19V9.46q0-1.63-1.39-1.63Q7.06,7.82,7.06,8.83Zm0,15v4.61a2.3,2.3,0,0,0,.14.82l2-.72V23.09ZM20.26,18a6.06,6.06,0,0,0-2.64-2.4l-1.39.53v0L10.66,15l-3.31,1.2,4.18.86a5.82,5.82,0,0,1,3.65,2.78ZM7.39,29.52A1.2,1.2,0,0,0,8.45,30q.72,0,.72-1.06v0Zm8.5-6a6.88,6.88,0,0,0-1-3.6v7q0,1.06-.43,1.2l0,0L9.07,30.1q-.1.24-.62.24a1.24,1.24,0,0,1-.38,0,12.29,12.29,0,0,0,1,.82s0,0,0,0a6.7,6.7,0,0,0,2.5,1.1l3.65.77a5.08,5.08,0,0,0,.62-2.54ZM12.14,7.1a3.41,3.41,0,0,1,.1-.91L8.3,7.58a1.72,1.72,0,0,1,.86.58ZM9.31,8.45a2.47,2.47,0,0,1,.19,1v4.8l2.64-1V7.44ZM9.5,28.8a2,2,0,0,1-.14.86l4-1.39a2,2,0,0,1-.86-.58Zm2.45-7-1.78-.38-.67.24v1Zm.38,5.66a2.46,2.46,0,0,1-.19-1V22L9.5,23v5.47Zm-2.59-13,.91.14,1.49-.53v-.48ZM13.87,28q.67,0,.67-1v-7.2L10.7,21.22l1.73.34v4.9a1.72,1.72,0,0,0,.19.86h0Q12.82,28,13.87,28ZM12.29,14.4l-1.06.38,4.66,1v-.62ZM12.67,6a1.42,1.42,0,0,0-.24.91V7l1.82-.67a1.28,1.28,0,0,0-1.06-.48,1,1,0,0,0-.43.1S12.74,6,12.67,6Zm-.24,7.15,2.11-.77v-5a2.07,2.07,0,0,0-.14-.82l-2,.72Zm0,.91,3.46.72V13l-1.2-.24-2.26.82Zm2.16,20.16,2.21-.82a4.79,4.79,0,0,1-.7-.07,4.86,4.86,0,0,0-.7-.07A4.65,4.65,0,0,1,14.59,34.27Zm1.3-21.6V10.32a6.77,6.77,0,0,0-1.15-3.74,2.59,2.59,0,0,1,.14.91v4.94Zm5.42,1.15V8.35a6.47,6.47,0,0,0-1-3.41L15.22,6.77a6.69,6.69,0,0,1,1,2.88q0,.48,0,3.07Zm0,14.64V21.6a6.65,6.65,0,0,0-.86-3.31l-5.14,1.82a7,7,0,0,1,.91,3.46v6.86A5.18,5.18,0,0,1,15.6,33a4.72,4.72,0,0,0,1.15.14A4.32,4.32,0,0,0,20,31.82,4.7,4.7,0,0,0,21.31,28.46Zm-3.7-13.2L21,14.06l-4.8-1v1.87Q16.7,15,17.62,15.26Zm-1.39,0v.53l.91-.34Z"/></g></g></svg>