<svg xmlns="http://www.w3.org/2000/svg" viewBox="0 0 22.32 36.77"><defs><style>.cls-1{fill:#231f20;}</style></defs><title>Asset 26</title><g id="Layer_2" data-name="Layer 2"><g id="Layer_1-2" data-name="Layer 1"><path class="cls-1" d="M5.47,0,22.32,3.55v6h-.1l-4.85,1.73V34.8h-.14L12,36.62v.14l-.19,0h0L4.94,35.23V9L0,8v-6H0Zm-.1,5.76V3.36L.34,2.3V7.54Zm0-5.42L.62,2,5.38,3.07ZM.62,7.78l4.61,1L10.08,7,5.47,6Zm4.61,1.3V34.9l5.09-1.78V7.3Zm5.28,24.29L5.66,35.09l6,1.25V33.6ZM21.6,3.74,5.71.38V3.12l11,2.35Zm-5,4.61V5.76L5.71,3.46v2.3l4.9,1.06V33.07l1.06.19V10.13h0ZM17,34.42v-23l-.1,0v.1l-.14,0-4.8-1V33.36Zm-5,1.87,4.61-1.63-4.61-1Zm4.61-27.6-4.32,1.54,4.32.91Zm.34-2.93v2.5l.1,0v0l.1,0,4.85,1V3.94Zm0,2.83v2.54l.1,0V8.54Zm.43,2.4,4.27-1.54-4.27-.91Z"/></g></g></svg>