<svg xmlns="http://www.w3.org/2000/svg" viewBox="0 0 25.49 37.15"><defs><style>.cls-1{fill:#231f20;}</style></defs><title>Asset 31</title><g id="Layer_2" data-name="Layer 2"><g id="Layer_1-2" data-name="Layer 1"><path class="cls-1" d="M25.49,4.32,19.06,20V35.23l-5.42,1.92v0L6.29,35.52V20.35L0,1.92,5.18,0V0l.1,0,.1,0,0,0,7.15,1.54.86,2.93,4.7-1.73Zm-25.1-2L6.53,20.16l5-1.78L6.43,3.65Zm4.94-2L.53,2.06,6.34,3.31ZM12,1.78,5.66.43l1,2.93.53.14ZM6.62,35.14l4.94-1.73V18.67L6.62,20.45ZM8.45,8.45,7.06,3.79l-.24-.1ZM7,35.38l6.48,1.34V34l-1.68-.38Zm6-30.67.24-.1L12.38,2l-5,1.78,2.54,8.74L12.86,4.7Zm.14.34L10.13,13l4.94-1.78L13.3,5.09ZM11.9,33.36l1.54.34,0-11.9s0,0,0,0L19.78,6.48,17.28,6l-2,5.47a0,0,0,0,1,0,0v.1l0-.1-5,1.82,1.78,5.09ZM18,3.22,13.54,4.8v0l3.55.72Zm-4.32,2,1.58,5.38L17,5.9ZM13.78,22V33.79l4.94,1.06V20.21Zm0,12.1v2.69l4.7-1.68Zm5-14.21L25,4.8,20.11,6.53,13.87,21.6Zm6-15.36L18.34,3.12l-.91,2.54L20,6.19Z"/></g></g></svg>