<svg xmlns="http://www.w3.org/2000/svg" viewBox="0 0 13.2 35.04"><defs><style>.cls-1{fill:#ffffff;}</style></defs><title>Asset 34</title><g id="Layer_2" data-name="Layer 2"><g id="Layer_1-2" data-name="Layer 1"><path class="cls-1" d="M5.47,0V0L13.2.62V33.07L7.73,35v0l-6.1-1.3V5.14L0,4.8V2L5.42,0V0ZM5,2.69.29,2.3v2ZM.58,4.56l1.2.29,4.9-1.73-1.2-.29ZM5.42.38.77,2l4.66.38ZM2,33.31l5.09-1.82V3.31L2,5.14Zm.29.19,5.23,1.1V31.82l-.34,0ZM12.38.86,5.71.34V2.4l1.92.14ZM7.49,31.54V2.88l-.67-.1.58.14V31.49Zm.29-28.7V31.58l5.09,1.1V1Zm0,31.87,4.9-1.78-4.9-1Z"/></g></g></svg>