<svg xmlns="http://www.w3.org/2000/svg" viewBox="0 0 22.18 36.91"><defs><style>.cls-1{fill:#ffffff;}</style></defs><title>Asset 35</title><g id="Layer_2" data-name="Layer 2"><g id="Layer_1-2" data-name="Layer 1"><path class="cls-1" d="M22.18,30.1V35l-5.42,1.87v0h0L0,33.36V24.24q0-3.41,2.54-4.46l0,0,5.33-1.87a6,6,0,0,1,1.39-.34v-4L7.1,14.3v0L0,12.82V7a4.54,4.54,0,0,1,3.46-4.8l0,0,5.47-2v0A5.06,5.06,0,0,1,10.27,0a6.66,6.66,0,0,1,1.3.14l4,.82a7.62,7.62,0,0,1,4.32,2.71A7.24,7.24,0,0,1,21.7,8.4V20.21a3.82,3.82,0,0,1-2.59,4v0L14,26.11a4.5,4.5,0,0,1-1.49.29V28ZM4.9,2.26A4.32,4.32,0,0,0,1.61,3.6,4.7,4.7,0,0,0,.34,7v5.52l5-1.78V5A4.89,4.89,0,0,1,6,2.4,5.17,5.17,0,0,0,4.9,2.26Zm-1,17.52A3.13,3.13,0,0,0,1.2,21.22a5.19,5.19,0,0,0-.86,3V33l5-1.78V22.27a5.63,5.63,0,0,1,.38-2.11A8.9,8.9,0,0,0,3.89,19.78ZM.72,33.17l15.74,3.36V33.74L5.62,31.44Zm0-20.5,6,1.3V11.14l-1.1-.19Zm5.09,7.2a3.83,3.83,0,0,1,1-1.34l-2.74,1A14.45,14.45,0,0,1,5.86,19.87ZM7.1,1.1,4.75,2a7.6,7.6,0,0,1,1.49.14A3.7,3.7,0,0,1,7.1,1.1Zm-1.39,30,10.75,2.3V32.3l-9.7-2.06,0-5.28,5.33-1.87v0h.14l3.41.72A4.23,4.23,0,0,0,16,22.18V10.37a6.91,6.91,0,0,0-1.7-4.54,7.32,7.32,0,0,0-4.15-2.57L6.38,2.45A4.79,4.79,0,0,0,5.71,5v5.62l1.06.24q0-2.69.38-3v0l5.42-1.92c.1-.16.3-.24.62-.24q1.73,0,1.73,2V18.82a.14.14,0,0,1-.1,0l0,0-5.66,2A18.26,18.26,0,0,1,6,20.26a5.79,5.79,0,0,0-.34,2Zm3.5-10.56V17.86a3.22,3.22,0,0,0-1.1.19v0A3.14,3.14,0,0,0,6.19,20,21.61,21.61,0,0,0,9.22,20.59ZM19.63,3.89A7.17,7.17,0,0,0,15.5,1.3l-4-.86A6,6,0,0,0,10.27.29a4.3,4.3,0,0,0-3.7,1.87q3.89.86,4.37,1a6.68,6.68,0,0,1,3.55,2.5Zm-11.81,4q-.72,0-.72,1v2l2.11.48V9.55Q9.22,7.92,7.82,7.92ZM7.1,14l2.11-.77V11.66L7.1,11.23Zm5,14.06V26.4l-.67-.1L7.1,25.39v4.46Zm0-2V23.42L7.39,25.1l4.18.91A3,3,0,0,0,12.14,26.06Zm4.46,6,4.9-1.73-9.17-2L7.44,30ZM9.26,8.4l2.88-1.06a2.64,2.64,0,0,1,.14-1.06l-4,1.39A1.5,1.5,0,0,1,9.26,8.4ZM12.14,12V7.68l-2.74,1a13.27,13.27,0,0,1,.14,2.74Zm.38.38-3,1.06v4.08a16.7,16.7,0,0,1,2.59.62,8,8,0,0,0,2.45.48v-11a2.32,2.32,0,0,0-.1-.72l-2,.72v4.61A.77.77,0,0,0,12.53,12.38Zm-.62-.14-2.35-.48V13.1ZM9.55,17.86V20.5L14,18.86Q12.38,18.38,9.55,17.86ZM12.48,7v.24l1.87-.67A1.27,1.27,0,0,0,13.2,6Q12.48,6,12.48,7Zm0,16.42v2.69a2.81,2.81,0,0,0,1.06-.19A3.49,3.49,0,0,0,15.6,24Zm8.88-3.22V8.4a6.94,6.94,0,0,0-1.54-4.27L14.74,6a7.12,7.12,0,0,1,1.58,4.42V22.18A4.75,4.75,0,0,1,16,23.86a10.74,10.74,0,0,0,1.82.29A3.15,3.15,0,0,0,20.4,23,4.21,4.21,0,0,0,21.36,20.21Zm-5.47,3.94A3.37,3.37,0,0,1,15,25.39l2.69-1A10.74,10.74,0,0,1,15.89,24.14Zm.86,8.16v1.2l5.09,1.06V30.48Zm0,1.54v2.69l4.85-1.68Z"/></g></g></svg>