<svg xmlns="http://www.w3.org/2000/svg" viewBox="0 0 21.74 35.66"><defs><style>.cls-1{fill:#ffffff;}</style></defs><title>Asset 36</title><g id="Layer_2" data-name="Layer 2"><g id="Layer_1-2" data-name="Layer 1"><path class="cls-1" d="M20.21,4l1,2.11a5.29,5.29,0,0,1,.53,2.3v4.27a4.55,4.55,0,0,1-2.64,4.51v0l-1.63.62a8.15,8.15,0,0,1,3.07,2.74,6.73,6.73,0,0,1,1.2,3.84v4.27A4.55,4.55,0,0,1,19,33.22v0l-5.28,1.87a7.6,7.6,0,0,1-2.4.53A6.41,6.41,0,0,1,10,35.52L6.1,34.7A7.48,7.48,0,0,1,1.78,32,7.22,7.22,0,0,1,0,27.31V22.13l5.38-1.92v0l.91.19V15.94h.1l0,0,2.78-1V12.82l-2.06.72v0H7L0,12.1V7A4.56,4.56,0,0,1,3.07,2.35l0,0,5-1.78A7.47,7.47,0,0,1,10.27,0q.58,0,5.28,1a7.81,7.81,0,0,1,4.61,3ZM4.85,2.3A4.33,4.33,0,0,0,1.56,3.65,4.7,4.7,0,0,0,.29,7v4.66L5.38,9.84V5A4.88,4.88,0,0,1,6,2.45,5.36,5.36,0,0,0,4.85,2.3ZM.29,22.51v4.8a6.49,6.49,0,0,0,1.06,3.5L6.43,29a7.12,7.12,0,0,1-1-2.59,24.76,24.76,0,0,1-.1-2.78ZM.58,11.9l6.19,1.3V10.37l-1.25-.24Zm4.8,8.64L.58,22.27l4.8,1ZM1.49,31.1a7.25,7.25,0,0,0,4.66,3.31l3.89.82a6.2,6.2,0,0,0,1.3.14,4.65,4.65,0,0,0,2.11-.48,3.25,3.25,0,0,0,1.73-1.39q-4.08-.86-4.85-1.15a7.91,7.91,0,0,1-3.7-3.07ZM7,1.25,4.85,2a5.6,5.6,0,0,1,1.34.14A3.7,3.7,0,0,1,7,1.25ZM5.71,9.84l1.06.24a6.19,6.19,0,0,0,0-1.54q.1-1.06.62-1.3l5.23-1.87a.76.76,0,0,1,.62-.19,1.3,1.3,0,0,1,.48.1,6.91,6.91,0,0,0-3.41-1.92q-.1,0-3.94-.86A5.08,5.08,0,0,0,5.71,5Zm.58,10.85-.58-.14v2.83l1.15.24,2.21-.77a1.3,1.3,0,0,0-1-1.1l-1.78-.38Zm-.58,4.66A6.73,6.73,0,0,0,6.77,28.9v-5l-1.06-.24ZM19.87,4.18A7.38,7.38,0,0,0,15.46,1.3L11.52.48A6,6,0,0,0,10.27.34,5,5,0,0,0,8.59.62l0,0A4.13,4.13,0,0,0,6.53,2.21q2.06.43,4.56,1.06A7.8,7.8,0,0,1,14.74,6ZM6.58,16.32V20.4l.86.19,3.41-1.2v0h0l.77-.29v-3.5l-2.74,1a1.87,1.87,0,0,1-.53.14Q8.26,16.66,6.58,16.32Zm0,4.42v.19l.34-.1Zm.91.19-.67.24A9.31,9.31,0,0,1,8,21.41a2,2,0,0,1,1,.48l1.15-.38Zm1.63-5.66L6.86,16q1.44.34,1.54.34Q9.12,16.37,9.12,15.26ZM7.06,8.59v1.54l2.06.43V9.12q0-1.63-1.34-1.63Q7.06,7.49,7.06,8.59Zm0,4.61,2.06-.72V10.9l-2.06-.43Zm2.06,9.94-2.06.72v4.8a1.91,1.91,0,0,0,.19.86l1.87-.67ZM7.44,29.81a1.3,1.3,0,0,0,1,.38q.62,0,.72-1ZM16,26.45a6.58,6.58,0,0,0-1.2-3.74V27a1.87,1.87,0,0,1-.38,1.34v0L9,30.29a.75.75,0,0,1-.62.24,1.24,1.24,0,0,1-.38,0,6.92,6.92,0,0,0,3.55,1.92l3.79.82A4.46,4.46,0,0,0,16,30.77Zm-5.09-6.72-2.88,1,2.64.58,2-.72A6.27,6.27,0,0,0,10.94,19.73Zm-1.87-12,3.07-1.1a2.22,2.22,0,0,1,.14-.86l-4,1.44A1.46,1.46,0,0,1,9.07,7.78ZM10.7,21.6l-1.54.58a1.5,1.5,0,0,1,.19.53l2.45-.86Zm1.44-10.37V7L9.22,8.06a9.51,9.51,0,0,1,.19,2.59ZM9.41,15.12a3.68,3.68,0,0,1-.1,1l2.35-.86v-.86Zm0,14a2.5,2.5,0,0,1-.1.77l4-1.39a1.31,1.31,0,0,1-.72-.48Zm0-16.37v2.06L11.66,14v0h.14q1.92.43,2,.43.67,0,.67-1.1V7.06a2.07,2.07,0,0,0-.14-.82l-1.87.67v4.7h0Zm2.5-1.25-2.5-.53v1.44Zm.24,10.61L9.41,23v5.71l3-1.06a2.25,2.25,0,0,1-.24-1.1Zm1.63,6.14q.72,0,.72-1.15v-4.8A11,11,0,0,0,13,20.78l-1.73.62,1.2.24v4.94a2.26,2.26,0,0,0,.19,1Q12.82,28.22,13.78,28.22Zm-.72-7.78,1.06-.38a4.08,4.08,0,0,0-1.49-.48,4.17,4.17,0,0,1-.91.1A14.56,14.56,0,0,1,13.06,20.45ZM12,19l2.88-1.06A4.55,4.55,0,0,0,16,14.69V10.42a6.7,6.7,0,0,0-1.25-3.84,3.33,3.33,0,0,1,0,.53v6.14q0,1.1-.48,1.3v0L12,15.46Zm0-3.84,1.34-.48L12,14.35ZM13.54,19a2.81,2.81,0,0,0,.77-.48l-2,.72.34,0A4.34,4.34,0,0,0,13.54,19Zm-.82-13.3a1.3,1.3,0,0,0-.24.91L14.21,6a1.23,1.23,0,0,0-1-.48.39.39,0,0,0-.29.1v0ZM20.5,21.12A8.33,8.33,0,0,0,17,18q-1.25.48-3.74,1.39a2.12,2.12,0,0,1,1.1.58h0v0a2.52,2.52,0,0,1,.38,1.34v.82q.29.39.53.77Zm-6,.24a2.27,2.27,0,0,0-.19-1l-1,.34a7.57,7.57,0,0,1,1.15,1.1Zm1.87-3.6-1.3.43-.29.29,1.87-.62ZM14.78,34.42l2-.72a5.52,5.52,0,0,1-1.25-.14A4.93,4.93,0,0,1,14.78,34.42Zm6.67-21.7V8.45a6.77,6.77,0,0,0-1.39-4L14.93,6.24a7,7,0,0,1,1.44,4.18v4.27a5,5,0,0,1-.91,3l.77-.29,0,0a4.45,4.45,0,0,0,5.18-4.66Zm0,16V24.48a6.14,6.14,0,0,0-.82-3.07L15.5,23.23a6.47,6.47,0,0,1,.86,3.22v4.32a4.55,4.55,0,0,1-.67,2.5,6.36,6.36,0,0,0,1.06.1,4.65,4.65,0,0,0,3.36-1.3A4.4,4.4,0,0,0,21.46,28.75Z"/></g></g></svg>