<svg xmlns="http://www.w3.org/2000/svg" viewBox="0 0 21.7 36.86"><defs><style>.cls-1{fill:#ffffff;}</style></defs><title>Asset 38</title><g id="Layer_2" data-name="Layer 2"><g id="Layer_1-2" data-name="Layer 1"><path class="cls-1" d="M12.48,11.33l4.46,1a5.31,5.31,0,0,1,3.43,2.42,7.48,7.48,0,0,1,1.32,4.2v11a4.63,4.63,0,0,1-3.17,4.75l-5.47,2v0a5.14,5.14,0,0,1-1.73.29,43.25,43.25,0,0,1-5.18-1A7.55,7.55,0,0,1,1.8,33.22,7.26,7.26,0,0,1,0,28.46V23.33H0l5.33-1.87v0h.1l3.7.82V19L0,17V1.92H0L5.38,0V0h.1V0l15.6,3.31V8.78l-.14,0-5.28,1.87v.1L12.48,10Zm-7.1,3.5V3.41L.29,2.3V16.66ZM.29,23.71v4.75a6.8,6.8,0,0,0,1.58,4.27L7,30.91A7,7,0,0,1,5.57,28a18.59,18.59,0,0,1-.19-3.22Zm5.09-1.92L.62,23.47l4.75,1ZM5.38.38.67,2.06l4.7,1ZM9.31,18.67,14.16,17,5.47,15.12.67,16.85ZM2.06,33a7.37,7.37,0,0,0,4.13,2.59l3.94.86a6.1,6.1,0,0,0,1.25.1,4.42,4.42,0,0,0,3.7-1.82q-3.6-.77-4.37-1a6.93,6.93,0,0,1-3.55-2.5ZM20.4,3.5,5.71.38V3.12l9.84,2.11Zm-5.09,2L5.71,3.46V14.88l8.93,1.87a4.55,4.55,0,0,0-3.17-2.26l-4.7-1,0-5,5.42-1.92,3.07.67Zm-6.14,17-3.46-.77v2.74L7,24.82,9.17,24Zm-3.46,2.3v1.68A6.56,6.56,0,0,0,6.77,30.1v-5Zm6.43-13.58V9.94L7.06,8.88V13.1Zm-3,13.06-2.11.77v4.7a1.78,1.78,0,0,0,.24,1l1.87-.67Zm10.7-9.7a5.12,5.12,0,0,0-3-2l-4.66-1L7.39,13.34l4.13.86a5.43,5.43,0,0,1,3.26,2.26Zm-7.73-5V6.91L7.44,8.59ZM7.49,31.06a1.4,1.4,0,0,0,1,.34q.67,0,.72-1Zm7.78,3.41a5,5,0,0,0,.67-2.64v-11a7,7,0,0,0-1-3.65V28.37q0,1-.53,1.3-1.82.62-5.47,1.92a1.28,1.28,0,0,1-.48.1,2,2,0,0,1-.48,0,7.61,7.61,0,0,0,3.36,2Q11.42,33.6,15.26,34.46ZM9.5,30.34a1.72,1.72,0,0,1-.14.77l4-1.39a1.58,1.58,0,0,1-.77-.48ZM9.5,19v3.31l3,.62v4.94q0,1.63,1.34,1.63.77,0,.77-1.1V17.14Zm0,4.94,2.3-.82-2.3-.48Zm2.64-.62-2.64,1V30l2.88-1.06a2.25,2.25,0,0,1-.24-1.1ZM12.48,9.7l2.83.58V7.54L12.48,7Zm2,26.06,2.35-.82a7.07,7.07,0,0,1-1.39-.14A4.55,4.55,0,0,1,14.45,35.76Zm6.91-5.86v-11a6.73,6.73,0,0,0-1.3-4L15,16.7a7.24,7.24,0,0,1,1.3,4.13v11a5.23,5.23,0,0,1-.67,2.69,4.92,4.92,0,0,0,1.2.14,4.29,4.29,0,0,0,3.29-1.37A4.78,4.78,0,0,0,21.36,29.9ZM20.74,3.74,15.65,5.52V7.3l5.09,1.1Zm-5.09,6.53,4.7-1.63-4.7-1Z"/></g></g></svg>