<svg xmlns="http://www.w3.org/2000/svg" viewBox="0 0 21.7 35.57"><defs><style>.cls-1{fill:#231f20;}</style></defs><title>Asset 39</title><g id="Layer_2" data-name="Layer 2"><g id="Layer_1-2" data-name="Layer 1"><path class="cls-1" d="M10.27,0a6.61,6.61,0,0,1,1.39.14L15.55,1a7.61,7.61,0,0,1,4.32,2.71A7.24,7.24,0,0,1,21.7,8.4v3.07h0l-2.3.82a7,7,0,0,1,2.35,5.33v11a4.58,4.58,0,0,1-2.93,4.61l-5.28,1.92a6.37,6.37,0,0,1-2.11.43,42.05,42.05,0,0,1-5.23-1A7.55,7.55,0,0,1,1.8,31.92,7.19,7.19,0,0,1,0,27.22V7A4.51,4.51,0,0,1,3,2.3v0L8.16.43A6.35,6.35,0,0,1,10.27,0ZM.29,7V27.22a6.3,6.3,0,0,0,.82,3.07l5.14-1.82a6.75,6.75,0,0,1-.82-3.22V5A5.18,5.18,0,0,1,6,2.4a5.36,5.36,0,0,0-1.2-.14A4.33,4.33,0,0,0,1.56,3.6,4.7,4.7,0,0,0,.29,7Zm1,23.62a7.35,7.35,0,0,0,4.94,3.7l3.94.82a6,6,0,0,0,1.25.14,5,5,0,0,0,1.82-.34,3.88,3.88,0,0,0,1.92-1.54,39.44,39.44,0,0,1-5-1.25,7.63,7.63,0,0,1-3.7-3.36ZM7.06,1.15,4.9,2a6.42,6.42,0,0,1,1.34.14A4.63,4.63,0,0,1,7.06,1.15ZM7.3,16.27l5.33-1.87.58-.19h.19a4.85,4.85,0,0,0-1.92-.91l-4.7-1V8.5q0-1.1.62-1.34,5.66-2,5.81-2a1,1,0,0,1,.38,0,8.3,8.3,0,0,0-3.31-1.92q-.58-.1-3.89-.82A4.61,4.61,0,0,0,5.71,4.9V25.25a6.49,6.49,0,0,0,1.06,3.5V17.62Q6.77,16.56,7.3,16.27Zm12-12.72a7.35,7.35,0,0,0-3.89-2.3L11.57.43A6,6,0,0,0,10.32.29,4.5,4.5,0,0,0,8.59.62a4.18,4.18,0,0,0-2,1.54q3.7.82,4.18,1a8,8,0,0,1,3.46,2.26ZM7.06,8.5v3.36l2.11-.77V9q0-1.58-1.39-1.58Q7.06,7.44,7.06,8.5Zm.72,8q-.72,0-.72,1.06V28.61a1.7,1.7,0,0,0,.14.67l2-.72V18.1Q9.17,16.46,7.78,16.46ZM20.5,14.3A7.25,7.25,0,0,0,19,12.43l-2.74,1v0L9.17,12v-.53l-1.82.67,4.22.91a5.8,5.8,0,0,1,3.79,3.12ZM7.34,29.57a1.41,1.41,0,0,0,1.1.58q.72,0,.72-1.06V28.9Zm8.59-10a6.88,6.88,0,0,0-1-3.6V27.07a1.6,1.6,0,0,1-.34,1.15v0l-.62.24L9.12,30.24c-.1.16-.32.24-.67.24a1.39,1.39,0,0,1-.34,0,8.11,8.11,0,0,0,3.36,1.82s1.31.32,3.84.86a5.09,5.09,0,0,0,.62-2.54ZM8.26,7.2a1.55,1.55,0,0,1,1,.62l3-1.06a2.47,2.47,0,0,1,.14-1Zm3.94,8.5a3.2,3.2,0,0,1,.1-.86l-4,1.39a1.73,1.73,0,0,1,.82.58ZM9.5,28.46l2.83-1a2.59,2.59,0,0,1-.14-.91V16L9.31,17A2.61,2.61,0,0,1,9.5,18.1ZM9.36,8.11A14.54,14.54,0,0,1,9.5,11l2.69-1V7.1ZM9.5,28.8a3.93,3.93,0,0,1-.1,1l3.89-1.39a1.33,1.33,0,0,1-.82-.67Zm2.74-18.48-2.74,1v.19l3.12-1.1Zm1,.24-3.36,1.2,6.1,1.3V11.14Zm-.72-4.08v.19L14.3,6a1.37,1.37,0,0,0-1.1-.53H13v0Q12.48,5.66,12.48,6.48ZM14.64,9.7V7a1.81,1.81,0,0,0-.14-.72l-2,.72v3.07l.72.14ZM14.21,15a1.32,1.32,0,0,0-1-.48.6.6,0,0,0-.34.1v0h-.1a1.7,1.7,0,0,0-.29,1Zm.43,1.15q0-.67-.24-.86l-1.92.67V26.54q0,1.39,1.1,1.63a.56.56,0,0,0,.34,0l.43-.14a1.22,1.22,0,0,0,.29-1Zm1.3-5.86L14.74,10l-1,.38,2.16.43Zm5.47.82V8.4a6.37,6.37,0,0,0-1.87-4.61L14.45,5.62A6.3,6.3,0,0,1,16.27,10ZM14.64,34.37l2.16-.77a6.38,6.38,0,0,1-1.34-.14A5.39,5.39,0,0,1,14.64,34.37Zm.29-24.62,1,.19a6.37,6.37,0,0,0-1-3.07Zm6.48,18.86v-11a6.68,6.68,0,0,0-.72-3L15.5,16.42a6.82,6.82,0,0,1,.77,3.17v11a5.18,5.18,0,0,1-.62,2.59,7,7,0,0,0,1.15.1,4.44,4.44,0,0,0,3.31-1.32A4.57,4.57,0,0,0,21.41,28.61ZM19.1,12l2-.67-4.8-1.06v.58A7.08,7.08,0,0,1,19.1,12Zm-2.83-.86v1.87l2.45-.86A6,6,0,0,0,16.27,11.18Z"/></g></g></svg>