<svg xmlns="http://www.w3.org/2000/svg" viewBox="0 0 22.27 36"><defs><style>.cls-1{fill:#231f20;}</style></defs><title>Asset 40</title><g id="Layer_2" data-name="Layer 2"><g id="Layer_1-2" data-name="Layer 1"><path class="cls-1" d="M22.27,3.6l-9.6,30.48L7.3,36v0H7.15l-7-1.49L8,9.65,0,8,0,2H0v0L5.38,0V0h.14V0ZM.34,2.35l0,5.18,5-1.78V3.41Zm5-2L.58,2.06,5.42,3.12Zm3,9.26L.62,34.08l5-1.78L13.3,7.87Zm-.14-.29,4.9-1.73L5.57,6,.67,7.78Zm-7.3,25,6.14,1.3L7.87,33l-2.11-.43ZM21.6,3.79,5.71.38V3.17l11,2.35ZM6,32.3l2,.43,8.54-27L5.71,3.5l0,2.26,8,1.68Zm1.44,3.26,4.7-1.63-3.89-.82ZM16.8,5.81l-8.5,27,4.13.91L21.79,4Z"/></g></g></svg>