<svg xmlns="http://www.w3.org/2000/svg" viewBox="0 0 21.79 35.52"><defs><style>.cls-1{fill:#231f20;}</style></defs><title>Asset 41</title><g id="Layer_2" data-name="Layer 2"><g id="Layer_1-2" data-name="Layer 1"><path class="cls-1" d="M10.46,0a52.2,52.2,0,0,1,5.18,1A7.65,7.65,0,0,1,20,3.6a7.08,7.08,0,0,1,1.8,4.7v5.14a4.77,4.77,0,0,1-4.66,4.08,8.21,8.21,0,0,1,3.34,2.76,6.76,6.76,0,0,1,1.32,4v4.27a4.87,4.87,0,0,1-1,3,5,5,0,0,1-2.62,1.85l-5.47,2v0a5,5,0,0,1-1.39.19,6.2,6.2,0,0,1-1.3-.14L6.1,34.56a7.54,7.54,0,0,1-4.3-2.69A7.2,7.2,0,0,1,0,27.17V22a4.56,4.56,0,0,1,1.51-2.9,4.85,4.85,0,0,1,3-1.22,7.52,7.52,0,0,1-3.29-2.71,6.93,6.93,0,0,1-1.27-4V7a4.91,4.91,0,0,1,.94-2.9A4.94,4.94,0,0,1,3.36,2.21v0L8.83.24A5.45,5.45,0,0,1,10.46,0ZM.34,7v4.22a6.55,6.55,0,0,0,1,3.5l5.09-1.78a7.13,7.13,0,0,1-1-3.65V5a4.67,4.67,0,0,1,.82-2.69A5.35,5.35,0,0,0,5,2.21,4.5,4.5,0,0,0,1.7,3.6,4.62,4.62,0,0,0,.34,7ZM.34,22v5.14a6.71,6.71,0,0,0,1.34,4l5.09-1.78a7.21,7.21,0,0,1-1.34-4.13V20l-5,1.78Zm5-3.79a4.88,4.88,0,0,0-3.1.72,4.26,4.26,0,0,0-1.85,2.5l5.09-1.78a4,4,0,0,1,.82-1.82l-1,.34ZM1.54,15A7.12,7.12,0,0,0,5.33,17.9l1.44-.53A4.83,4.83,0,0,1,9.94,16l-.48-.24-.53.19a1,1,0,0,1-.53.14q-1.63,0-1.63-2.69l-.14-.24Zm.34,16.46a7.22,7.22,0,0,0,4.27,2.83l3.89.82a6,6,0,0,0,1.25.14A4.72,4.72,0,0,0,15,33.41q-3.84-.82-4.51-1.06A7.54,7.54,0,0,1,7,29.62ZM6.43,2.06a3.72,3.72,0,0,1,.91-1l-2.26.82A6.87,6.87,0,0,1,6.43,2.06Zm9.65,13.3V10.22a6.76,6.76,0,0,0-1.73-4.51,7.47,7.47,0,0,0-4.18-2.54L6.53,2.4A4.59,4.59,0,0,0,5.71,5V9.26a6.64,6.64,0,0,0,1.06,3.6V9.26q0-1.1.53-1.34L12.77,6a1,1,0,0,1,.43-.1q1.68,0,1.68,1.92v4.9q0,1.06-.53,1.25l0,0L9.84,15.65q.48.19,1,.34l0,.24,0,0a0,0,0,0,0,0,0h0L6.91,17.66a3.5,3.5,0,0,0-1.2,2.45v5.14a6.88,6.88,0,0,0,1.73,4.51,7.36,7.36,0,0,0,4.13,2.59l3.65.77a4.28,4.28,0,0,0,.86-2.64V26.21a6.43,6.43,0,0,0-1.2-3.74v4.08a1.51,1.51,0,0,1-.43,1.25l-.58.19-4.8,1.73a.94.94,0,0,1-.67.19Q6.77,29.9,6.77,28V23a1.34,1.34,0,0,1,.82-1.44L12.14,20a7.85,7.85,0,0,0-1.34-.53l0-.29s0,0,0,0L15,17.66A3.5,3.5,0,0,0,16.08,15.36ZM20.5,4.9a7.37,7.37,0,0,0-4.9-3.65L11.71.43A6,6,0,0,0,10.46.29a4.5,4.5,0,0,0-3.7,1.82,39.57,39.57,0,0,1,4.94,1.25,7.64,7.64,0,0,1,3.7,3.36ZM7.78,8.11q-.67,0-.67,1.15v4a6.48,6.48,0,0,0,1,1.15l1-.38V9.74Q9.12,8.11,7.78,8.11Zm0,6.43q-.34-.34-.67-.72v.38a3.47,3.47,0,0,0,0,.58Zm-.24,7.39a1.05,1.05,0,0,0-.43,1V28a1.91,1.91,0,0,0,.19.86l1.82-.67v-4.7q0-1.63-1.34-1.63A.81.81,0,0,0,7.54,21.94Zm.53-7.15-.77.29a1.14,1.14,0,0,0,1.1.67A.65.65,0,0,0,9,15.46,6,6,0,0,1,8.06,14.78Zm.62,14.69.19,0a1.21,1.21,0,0,0,.24-.86l-1.68.62a1.23,1.23,0,0,0,1,.43.58.58,0,0,0,.34-.1ZM7.63,17l2.06-.72A5,5,0,0,0,7.63,17Zm4.56-9.5a2.86,2.86,0,0,1,.14-1.06l-4,1.39a1.49,1.49,0,0,1,.91.72Zm0,13.73a2.68,2.68,0,0,1,.14-1l-4,1.39a1.49,1.49,0,0,1,.86.72Zm-3.12-6a2.71,2.71,0,0,0,0-.53V14.4l-.77.29Zm.24-6.34a2.44,2.44,0,0,1,.14.86V14l2.83-1a2.59,2.59,0,0,1-.1-.72V7.87ZM12.19,21.6,9.31,22.66a2.44,2.44,0,0,1,.14.86v4.61l2.93-1a2.59,2.59,0,0,1-.19-1.06ZM9.36,15.36l.1,0,3.84-1.34a1.44,1.44,0,0,1-.91-.82L9.46,14.3A3.86,3.86,0,0,1,9.36,15.36Zm.1,13.1a3,3,0,0,1-.1.82l3.84-1.39a1.22,1.22,0,0,1-.67-.53Zm10.8-7.92a7.75,7.75,0,0,0-4-3L15.12,18a4.62,4.62,0,0,1-3.41,1.49l.82.43a2.84,2.84,0,0,1,.67-.19q1.68,0,1.68,2.26a2.63,2.63,0,0,1,.29.43Zm-5.9-2.35-2.64,1A4.18,4.18,0,0,0,14.35,18.19ZM12.48,7.44l1.82-.67a1.25,1.25,0,0,0-1.1-.58q-.72,0-.72,1.06Zm2.06,5.38v-5a2.61,2.61,0,0,0-.1-.72l-2,.72v4.46q0,1.58,1.34,1.58Q14.54,13.82,14.54,12.82ZM12.67,20.3a1.27,1.27,0,0,0-.19.72v.14l.91-.34A6.05,6.05,0,0,0,12.67,20.3Zm1.54,7.3q.34-.19.34-1V22a6.24,6.24,0,0,0-.86-1l-1.2.43v4.61q0,1.54,1.3,1.58l.38-.14Zm-1.34-7.54a10.35,10.35,0,0,1,.86.67l.58-.19A1.25,1.25,0,0,0,13.2,20,.47.47,0,0,0,12.86,20.06ZM14,21c.19.19.37.38.53.58a1.6,1.6,0,0,0-.14-.72Zm1.34,12.48a5.14,5.14,0,0,1-.91,1l2.21-.82A6.17,6.17,0,0,1,15.36,33.46Zm6.1-4.9V24.29a6.47,6.47,0,0,0-1-3.46l-5.09,1.82a6.8,6.8,0,0,1,1,3.55v4.27a4.9,4.9,0,0,1-.82,2.74,6.67,6.67,0,0,0,1.1.1A4.66,4.66,0,0,0,20,31.92,4.54,4.54,0,0,0,21.46,28.56ZM16.9,17.23a4.29,4.29,0,0,0,3.94-2.16l-4.94,1.78a2.54,2.54,0,0,1-.38.62l.82-.29A3.48,3.48,0,0,0,16.9,17.23Zm4.56-3.79V8.3a6.41,6.41,0,0,0-.82-3.12L15.55,7a6.77,6.77,0,0,1,.82,3.22v5a3.71,3.71,0,0,1-.29,1.2l5-1.78A3.28,3.28,0,0,0,21.46,13.44Z"/></g></g></svg>