<svg xmlns="http://www.w3.org/2000/svg" viewBox="0 0 21.74 35.86"><defs><style>.cls-1{fill:#ffffff;}</style></defs><title>Asset 42</title><g id="Layer_2" data-name="Layer 2"><g id="Layer_1-2" data-name="Layer 1"><path class="cls-1" d="M10.37,0a6.39,6.39,0,0,1,1.34.14L15.6,1a7.52,7.52,0,0,1,4.34,2.71,7.35,7.35,0,0,1,1.8,4.78v20.4q0,3.84-3.46,4.85l0,0-5.47,2,0,0a5.22,5.22,0,0,1-1.44.19,49.88,49.88,0,0,1-5.23-1,7.46,7.46,0,0,1-4.37-2.69A7.37,7.37,0,0,1,0,27.41V24.29l.1,0v0l2.3-.82A7,7,0,0,1,0,18.1V7a4.62,4.62,0,0,1,3.22-4.8l5.47-2v0A4.74,4.74,0,0,1,10.37,0ZM.34,7V18.1a6.63,6.63,0,0,0,1.06,3.6l5.14-1.82a7,7,0,0,1-1.06-3.74V5A5.13,5.13,0,0,1,6.14,2.4,6,6,0,0,0,4.9,2.26,4.31,4.31,0,0,0,1.58,3.6,4.81,4.81,0,0,0,.34,7Zm0,20.4A6.44,6.44,0,0,0,2.11,32l5.14-1.82a6.86,6.86,0,0,1-1.78-4.42L.34,24.67Zm2.35-3.7-2.06.72,4.85,1v-.62A7.09,7.09,0,0,1,2.69,23.71ZM1.54,22a6.91,6.91,0,0,0,1.2,1.34l2.74-1a.14.14,0,0,1,.1,0v0l7,1.49v.38l1.73-.62-4.08-.91a4.36,4.36,0,0,1-2.54-1.39,5.29,5.29,0,0,1-1-1.15ZM2.3,32.3a7.34,7.34,0,0,0,3.94,2.3l3.89.82a6,6,0,0,0,1.25.14,4.35,4.35,0,0,0,3.74-1.87q-3.7-.82-4.18-1a7.5,7.5,0,0,1-3.46-2.3Zm3.17-7.78V22.7L3,23.57A6.48,6.48,0,0,0,5.47,24.53ZM7.2,1.1,4.85,2a4.44,4.44,0,0,1,1.44.14A4.56,4.56,0,0,1,7.2,1.1Zm-1.39,15a7,7,0,0,0,1,3.55V8.59A1.48,1.48,0,0,1,7.34,7.2l5.47-2v0a.77.77,0,0,1,.48-.14,1.42,1.42,0,0,1,.34,0,8.29,8.29,0,0,0-3.31-1.92q-.1,0-3.89-.82A5.18,5.18,0,0,0,5.81,5ZM8.64,25.2,11.86,24l-6-1.3v1.82Zm-2.83.34L7,25.78l1.1-.38-2.26-.48Zm1,.53-1-.19a7,7,0,0,0,1,3.12ZM20,4.22A7.41,7.41,0,0,0,15.55,1.3L11.62.43A6,6,0,0,0,10.37.29,4.35,4.35,0,0,0,6.62,2.16q3.84.86,4.32,1a8.71,8.71,0,0,1,3.46,2.4,5.61,5.61,0,0,0,.38.48ZM7.2,20.26l0,.1,2-.72V9.12q0-1.68-1.39-1.68-.72,0-.72,1.06V19.63A2,2,0,0,0,7.2,20.26Zm-.1,5.81V28.8a2,2,0,0,0,.19.91L9.22,29V25.63l-.58-.14Zm.34-5.47a1.34,1.34,0,0,0,1,.58q.77,0,.77-1.06V20Zm1.44,9.7v0a1.21,1.21,0,0,0,.34-.86L7.49,30a1.12,1.12,0,0,0,1,.38A1,1,0,0,0,8.88,30.29Zm6.43,3.12a4.71,4.71,0,0,0,.67-2.5V10.42a6.55,6.55,0,0,0-1-3.5V18.14q0,1-.53,1.3h0l-.14,0q-6,2-5.81,2h-.1a4.82,4.82,0,0,0,1.92.91l4.7,1v3.84q0,1.2-.86,1.49L9,30.53a5.91,5.91,0,0,1-.58.19,1.4,1.4,0,0,1-.34,0,7.88,7.88,0,0,0,3.31,1.92Q11.52,32.64,15.31,33.41ZM12.24,6.77a2.87,2.87,0,0,1,.14-1.06L8.3,7.2a1.53,1.53,0,0,1,.91.62ZM9.41,25.34l2.83-1v-.1l-3,1.06Zm0-17.23a3.2,3.2,0,0,1,.14,1V19.54l2.88-1a2.87,2.87,0,0,1-.14-.91V7.1ZM9.5,19.87a2.69,2.69,0,0,1-.14,1l4.08-1.39a1.53,1.53,0,0,1-.91-.67Zm0,9.41a3,3,0,0,1-.1.82l4-1.44a1.58,1.58,0,0,1-.77-.48Zm3-1.39a11.26,11.26,0,0,1-.24-3.22l-2.74,1v3.31ZM14.35,6a1.32,1.32,0,0,0-1.06-.53q-.72,0-.72,1.15Zm-.43,13.25q.77,0,.77-1.06V7.1a2.08,2.08,0,0,0-.14-.82l-2,.67V17.62Q12.58,19.25,13.92,19.25Zm0,9.17q.77,0,.77-1.06V23.81l-2.11.77v2.16Q12.58,28.42,13.92,28.42Zm.58,6.38,2.45-.86a6.13,6.13,0,0,1-1.49-.19A5,5,0,0,1,14.5,34.8Zm7-6V8.45a6.66,6.66,0,0,0-1.3-3.94L15,6.34a7.17,7.17,0,0,1,1.3,4.08v20.4a5.47,5.47,0,0,1-.62,2.64,5.31,5.31,0,0,0,1.2.14,4.36,4.36,0,0,0,3.31-1.37A4.73,4.73,0,0,0,21.46,28.85Z"/></g></g></svg>