<svg xmlns="http://www.w3.org/2000/svg" viewBox="0 0 22.96 33.58"><defs><style>.cls-1{fill:#ffffff;}</style></defs><title>Asset 1</title><g id="Layer_2" data-name="Layer 2"><g id="Layer_1-2" data-name="Layer 1"><path class="cls-1" d="M17.8,1.59,23,31.82l-.17,0,0,0-4.9,1.72-.09-.26,4.52-1.59-5-1.07.52,3-6.19-1.29-.43-3.22,0,.21-.3,0v0L6.06,31v.09L0,29.8l5.38-28,.21,0,0-.13L10.45,0l0,0ZM.34,29.58h0l0-.13ZM5.59,2.15.39,29.46l4.77-1.72L9.89,3.05Zm.21,28.6.43-2.49L5.16,28,.6,29.63Zm5.85-6.36,4.52,1L12.47,3.61l-2.28-.47L8.9,9.85l3.91-1.94V7.83l.3.09,1.2,11.91h-.09l-4,2.06,0-.13v.13l-2.71-.56,1.07-9.8L5.46,27.82l.82.17.26-1.81,0-.13,5.12-1.81ZM10.45.3,5.89,1.94,10,2.79ZM6.15,30.66l4.3-1.5-4-.86ZM10.92,29l.17-.9L11,27.39l-4.17-.86L6.54,28ZM6.79,26.23l4.43.95.43-2.62Zm3-6.28L8.9,11.31l-1,9.63Zm.17,1.59L9.8,20.25l-1.72.9ZM11.65,19,12.77,8.26,9,10.1l1,9.72Zm2.15.69-2.06-.43-1.68.86.17,1.46ZM10.71.39l-.47,2.45,2.45.52,4.56-1.59ZM11.91,32l.13,0L12,32l4.77-1.72-.65-4.51-4.64,1.63-.13.77Zm3.91-6.49-3.91-.82-.39,2.37ZM12,19l2.06.43L13,9.25ZM17.5,33.24,17,30.53h-.09l-4.56,1.59Zm-.22-2.92,5.33,1.12L17.54,1.94,12.73,3.66Z"/></g></g></svg>