<svg xmlns="http://www.w3.org/2000/svg" viewBox="0 0 21.94 36.82"><defs><style>.cls-1{fill:#ffffff;}</style></defs><title>Asset 2</title><g id="Layer_2" data-name="Layer 2"><g id="Layer_1-2" data-name="Layer 1"><path class="cls-1" d="M5.62.1,15.84,2.26a7.55,7.55,0,0,1,4.3,2.69,7.2,7.2,0,0,1,1.8,4.7v4.22a4.86,4.86,0,0,1-1.1,3.26v0l0,0a5.05,5.05,0,0,1-3.55,1.58,8,8,0,0,1,3.38,2.81,7,7,0,0,1,1.32,4.1V30a4.92,4.92,0,0,1-2.26,4.22q-.43.19-1.63.62l-4.27,1.58a5.09,5.09,0,0,1-2.11.43,6.66,6.66,0,0,1-1.3-.14L0,34.56V2L.14,2l0-.1L5.57,0ZM.34,2.35V34.22L5.42,32.4V3.46Zm5.09-2L.53,2.11l4.9,1Zm-4.66,34,9.65,2a6.51,6.51,0,0,0,1.25.14,4.23,4.23,0,0,0,3.7-1.87l-9.7-2Zm5-34V3.22l4.61,1A7.77,7.77,0,0,1,15,7.3l-.1-.14L20,5.28a6.91,6.91,0,0,0-4.27-2.74Zm0,3.12,0,28.85,9.74,2a4.55,4.55,0,0,0,.67-2.5V27.65a6.26,6.26,0,0,0-1.06-3.46v3.94q0,1.11-.67,1.34l0,.1L9.41,31.34l0-.1c-.1.16-.32.24-.67.24q-.19,0-1.78-.34v-9l.24,0L11,20.78l-.14,0,0-.34.24,0v0L15.12,19a4.54,4.54,0,0,0,1.1-3.12V11.62A6.83,6.83,0,0,0,15.12,8a5.21,5.21,0,0,1,0,.72v5.66q0,1-.53,1.3l-5.38,2v-.1a1.1,1.1,0,0,1-.58.14q-.19,0-1.78-.34v-9l.1,0,5.33-1.92v0h.14A12.45,12.45,0,0,1,14.35,7a7.07,7.07,0,0,0-4-2.45ZM7.25,17l2.21-.82V10.66a1.56,1.56,0,0,0-.62-1.44,9.65,9.65,0,0,0-1.58-.43Zm0,.1,0-.1v.1Zm0,13.68L9.46,30V24.34a1.44,1.44,0,0,0-.62-1.39,5.67,5.67,0,0,0-1.58-.43ZM7.58,8.54a6.74,6.74,0,0,1,1.1.29,1.54,1.54,0,0,1,.82.67l2.83-1.06V6.86Zm1.82,8-1.78.67a9.6,9.6,0,0,0,1.06.19Q9.36,17.42,9.41,16.56Zm0,13.82L7.68,31a8.48,8.48,0,0,0,1,.19Q9.31,31.2,9.41,30.38ZM9.26,22.9l3.07-1.15v-.38a6.63,6.63,0,0,0-.82-.43L7.73,22.27A5.31,5.31,0,0,1,9.26,22.9Zm3.07-.82L9.46,23.14a2.3,2.3,0,0,1,.29,1.2V30L12.34,29ZM9.74,16.46a1.37,1.37,0,0,1-.19.77l4.08-1.54-1.1-.19Zm0,13.82A3.57,3.57,0,0,1,9.6,31l4.13-1.44-1.15-.24Zm-.1-20.5a3.58,3.58,0,0,1,.1.86v5.47l2.59-.91V8.78Zm2.69,10.94a2.93,2.93,0,0,0-.43,0l.43.24Zm.29-.53.34.1a4.4,4.4,0,0,0,1.58-.82Zm0-11.86,1.92-.72q-.29-.43-1.92-.77Zm.1,6.86q1.2.24,1.34.24.77,0,.77-1.06V8.64a2.17,2.17,0,0,0-.14-.77l-2.06.82Zm.34,6.24L14.3,21A4.22,4.22,0,0,0,13,20.59l-.29.1v.53Zm-.43.19,0,0,0,0Zm0,7.3q1.3.29,1.44.29.77,0,.77-1.1V23.71a7.84,7.84,0,0,0-1.82-1.87l-.38.14Zm.72-7.25a8.2,8.2,0,0,1,1.49,1.49v-.82a1.63,1.63,0,0,0-.34-1.1Zm7.3.67a7.68,7.68,0,0,0-4.22-3.55l-1.25.48a4.22,4.22,0,0,1-1.63,1.1,1.86,1.86,0,0,1,1.49,1.15,11.29,11.29,0,0,1,.1,2.06,6.91,6.91,0,0,1,.43.58Zm-5.76,13.3,2-.77q-.58,0-1.25-.14A4,4,0,0,1,14.93,35.66Zm6.72-26a6.69,6.69,0,0,0-1.44-4.08L15.12,7.44a7.11,7.11,0,0,1,1.39,4.18v4.22a5,5,0,0,1-.82,2.88l.67-.24h0l.1,0,0,0,4-1.54a4.59,4.59,0,0,0,1.06-3.07Zm0,16.08a6.29,6.29,0,0,0-.91-3.26l.1.19-5.09,1.82a7,7,0,0,1,.77,3.17v4.22a5.36,5.36,0,0,1-.62,2.59,7.77,7.77,0,0,0,1.2.1,9.08,9.08,0,0,0,2.45-.62,2.68,2.68,0,0,0,.38-.29A4.42,4.42,0,0,0,21.65,30Zm-4.32-7.25a4.15,4.15,0,0,0,2.69-1Z"/></g></g></svg>