<svg xmlns="http://www.w3.org/2000/svg" viewBox="0 0 13.25 35.47"><defs><style>.cls-1{fill:#231f20;}</style></defs><title>Asset 43</title><g id="Layer_2" data-name="Layer 2"><g id="Layer_1-2" data-name="Layer 1"><path class="cls-1" d="M5.42,0l7.82,1.68-1,24s0,0,0,.1l0,0-2.26.82A4.35,4.35,0,0,1,12,28.1a4.18,4.18,0,0,1,.86,2.52,2.64,2.64,0,0,1-1.63,2.64v0L5.81,35.23a2.75,2.75,0,0,1-1.15.24,4,4,0,0,1-3-1.32,4.21,4.21,0,0,1-1.27-3,2.88,2.88,0,0,1,1-2.3,6,6,0,0,1,1.3-.58l2.54-.91L1.06,26.5,0,2,.1,2,0,2,5.42,0ZM.34,2.4,1.34,26l5.14-1.78L5.62,3.5Zm5.14-2L.58,2.11l5,1.06ZM2.35,28.7A2.39,2.39,0,0,0,.72,31.15,3.69,3.69,0,0,0,1.2,33l5.18-1.82a3.79,3.79,0,0,1-.48-1.39,3.72,3.72,0,0,0-2.69-1.2,2.37,2.37,0,0,0-.86.19Zm-1,4.56a3.83,3.83,0,0,0,3.26,1.92,2.43,2.43,0,0,0,1.82-.74,2.55,2.55,0,0,0,.72-1.85,1.62,1.62,0,0,0,0-.38q-.34-.38-.62-.77Zm.14-7,4.32.91.62-.24.14-2.4-.14,0ZM6.29,27.6l-.43-.1-2.16.77a3.86,3.86,0,0,1,2.16,1A2.82,2.82,0,0,1,6.29,27.6ZM12.58,1.82,5.76.38,5.9,3.22l1.73.38ZM6.72,22.27,7.49,3.89,5.9,3.55ZM12,28.51a4.3,4.3,0,0,0-2.54-1.87l-2.64,1v.1l-.14,0a2.44,2.44,0,0,0-.48,1.54,2.2,2.2,0,0,0,0,.43,4.1,4.1,0,0,1,.58.72ZM7,31.54a3.89,3.89,0,0,0-.67-1.3A3.84,3.84,0,0,0,7,31.54Zm-.53-4.22v0l0,0Zm1,5.18a2.58,2.58,0,0,1-.72,2.06L9.84,33.5A4,4,0,0,1,7.49,32.5Zm1.87-6.14,2.16-.77-4.61-1-.1,2.26q1.73-.58,1.82-.58A2.61,2.61,0,0,1,9.36,26.35ZM7.82,3.89,6.91,24.24l5,1.06,1-23.23Zm2.3,29.28a2.39,2.39,0,0,0,1.8-.72,2.52,2.52,0,0,0,.7-1.82,3.44,3.44,0,0,0-.53-1.82L7,30.62A3.82,3.82,0,0,1,7.44,32,3.68,3.68,0,0,0,10.13,33.17ZM7.78,26.74l0,.1a2.41,2.41,0,0,0-.77.34l1.63-.58A1.79,1.79,0,0,0,7.78,26.74Z"/></g></g></svg>