<svg xmlns="http://www.w3.org/2000/svg" viewBox="0 0 21.65 35.71"><defs><style>.cls-1{fill:#231f20;}</style></defs><title>Asset 3</title><g id="Layer_2" data-name="Layer 2"><g id="Layer_1-2" data-name="Layer 1"><path class="cls-1" d="M20,3.94A7.92,7.92,0,0,1,21.65,8.4v5h0v0l-5.33,2-3.84-.82v7.92l2.16-.82,0,0,7,1.49v5.52a4.49,4.49,0,0,1-2.78,4.46v.1l-5.33,2a5.43,5.43,0,0,1-2.16.43q-.63,0-5.23-1A7.64,7.64,0,0,1,1.8,32.11,7.07,7.07,0,0,1,0,27.41V7.06q0-3.5,2.83-4.61L8.45.29v0A4.63,4.63,0,0,1,10.22,0a50.28,50.28,0,0,1,5.23,1A7.15,7.15,0,0,1,20,3.94ZM1.68,31.39l5-1.87a7.1,7.1,0,0,1-1.39-4.18V5A5.08,5.08,0,0,1,6,2.45a6.72,6.72,0,0,0-1.1-.1A4.25,4.25,0,0,0,1.58,3.7,4.74,4.74,0,0,0,.34,7.06V27.41A6.71,6.71,0,0,0,1.68,31.39Zm.19.24a7.07,7.07,0,0,0,4.37,2.83l3.89.82a6,6,0,0,0,1.25.14,4.36,4.36,0,0,0,3.79-1.92q-4-.86-4.61-1.06A7.82,7.82,0,0,1,7,29.76ZM7,1.2l-2.26.86a4.79,4.79,0,0,1,1.34.1A5.14,5.14,0,0,1,7,1.2Zm.43,6.34Q13,5.47,13.15,5.47a1.77,1.77,0,0,1,.86.24,8,8,0,0,0-3.5-2.26q-.19-.1-4.22-1A5,5,0,0,0,5.66,5V25.34A6.67,6.67,0,0,0,6.77,29V8.93q0-1.15.67-1.34ZM19.63,4a7.2,7.2,0,0,0-3.7-2.54q-.43-.14-4.42-1a6.18,6.18,0,0,0-1.3-.14,4.33,4.33,0,0,0-3.79,2q4,.82,4.56,1A7.91,7.91,0,0,1,14.64,6l0-.1ZM9.22,13.92V9.46q0-1.63-1.44-1.63-.67,0-.67,1.06V28.75a2.78,2.78,0,0,0,.1.77l2-.77v-5h.1l0-.1,2.83-1.06V14.54ZM9,30a1.46,1.46,0,0,0,.19-.82v-.14l-1.87.72a1.36,1.36,0,0,0,1.1.53A4.27,4.27,0,0,0,9,30Zm5.86-4.75q0,2.78-.43,3.12a6,6,0,0,0-.58.19L9.22,30.34a1,1,0,0,1-.77.29H8.16a7.14,7.14,0,0,0,3.41,1.78l3.79.82A4.72,4.72,0,0,0,16,30.77V25.49ZM12.1,7a2.16,2.16,0,0,1,.14-.91l-4,1.49a1.73,1.73,0,0,1,.91.53ZM9.31,8.4A2.6,2.6,0,0,1,9.5,9.46v4l2.59-1V7.34ZM13.2,28.51a1.44,1.44,0,0,1-.77-.58L9.5,29a3.12,3.12,0,0,1-.1.91Zm-3.7.14,2.78-1a12,12,0,0,1-.19-3L9.5,24.14Zm.19-4.8,2.4.53V22.94Zm2.4-11-2.3.86,2.3.48Zm.34-6,1.73-.62a1.28,1.28,0,0,0-1-.43Q12.43,5.81,12.43,6.86Zm1.92-.38-1.92.72v5.23l2.11-.82V7.34A1.91,1.91,0,0,0,14.35,6.48ZM16,15V12.19l-1.3-.29-2.26.86V14.3Zm-1.44,7-2.11.82v1.58l2.11.43Zm-2.11,4.61q0,1.63,1.34,1.63l.53-.19a1.3,1.3,0,0,0,.24-.91v-2l-2.11-.43Zm2.21,7.92,2.3-.86a7.84,7.84,0,0,1-1.44-.14A5,5,0,0,1,14.64,34.56ZM21.31,13V8.4a6.81,6.81,0,0,0-1.49-4.18L14.74,6.1a7,7,0,0,1,1.34,2.78A16.91,16.91,0,0,1,16.27,12ZM16,11.86V10.42a6.58,6.58,0,0,0-1.2-3.74q.1.34.1,4.94Zm-1.1,10.22V25l1.3.29,4.9-1.82Zm6.43,6.67V23.66l-5,1.87v5.23a5.14,5.14,0,0,1-.58,2.5,5.85,5.85,0,0,0,1.06.1A4.38,4.38,0,0,0,20,32,4.5,4.5,0,0,0,21.31,28.75Zm-5-13.68,4.85-1.78-4.85-1.06Z"/></g></g></svg>