<svg xmlns="http://www.w3.org/2000/svg" viewBox="0 0 22.13 36.96"><defs><style>.cls-1{fill:#231f20;}</style></defs><title>Asset 4</title><g id="Layer_2" data-name="Layer 2"><g id="Layer_1-2" data-name="Layer 1"><path class="cls-1" d="M20.3,4.94a8.94,8.94,0,0,1,1.58,2.54,7.31,7.31,0,0,1,.24,2.16V30a4.76,4.76,0,0,1-1.82,4,8.93,8.93,0,0,1-2.06.91l-5.42,1.92v0a4.72,4.72,0,0,1-1.15.14,6.38,6.38,0,0,1-1.34-.14L0,34.61V2H.14L5.57,0V0L16,2.21A7.78,7.78,0,0,1,20.3,4.94ZM5.57,32.4V3.46L.34,2.35V34.27Zm0-32L.77,2.11l4.8,1.06ZM.77,34.46l9.65,2.06a6.38,6.38,0,0,0,1.34.14,4.23,4.23,0,0,0,3.65-1.92l-9.7-2.06v0ZM20.5,5.71a7.36,7.36,0,0,0-4.61-3.17L5.9.43V3.22l4.46,1a7.61,7.61,0,0,1,4.85,3.41ZM5.9,3.55v28.9l9.7,2a4.63,4.63,0,0,0,.62-2.4V11.47a6.31,6.31,0,0,0-.91-3.17,1.6,1.6,0,0,1,0,.38V28.18q0,1.15-.67,1.39l-5.47,2,0-.1a.7.7,0,0,1-.43.14q-.19,0-1.73-.34V8.4l.14,0,5.38-1.92,0,.19V6.48q.58.1,1.68.38a7.14,7.14,0,0,0-3.94-2.4ZM7.3,30.86l2.16-.77V10.61a1.5,1.5,0,0,0-.62-1.39A7.76,7.76,0,0,0,7.3,8.78ZM12.58,8.54V6.86L7.73,8.54a6.68,6.68,0,0,1,1.1.29,1.54,1.54,0,0,1,.72.77ZM9.41,30.43l-1.68.62a8.52,8.52,0,0,0,1,.19Q9.31,31.25,9.41,30.43Zm.34-.1a1.61,1.61,0,0,1-.14.72l4.18-1.49-1.15-.24ZM12.58,29V8.88l-2.88,1a5.13,5.13,0,0,1,0,.72V30ZM12.91,8.4l1.92-.67q-.29-.53-1.92-.86Zm0,20.64q1.25.29,1.39.29.72,0,.72-1.1V8.64a2,2,0,0,0-.1-.62l-2,.72Zm2.83,5.81a6.23,6.23,0,0,1-.86,1L17.09,35A11.26,11.26,0,0,1,15.74,34.85Zm6-4.85V9.65A6.67,6.67,0,0,0,20.69,6L15.41,7.87a6.91,6.91,0,0,1,1.1,3.7V32a5.37,5.37,0,0,1-.62,2.59,6.89,6.89,0,0,0,1.34.14l.48,0,.48,0A4,4,0,0,0,20.83,33,4.91,4.91,0,0,0,21.79,30Z"/></g></g></svg>