<svg xmlns="http://www.w3.org/2000/svg" viewBox="0 0 20.64 37.15"><defs><style>.cls-1{fill:#ffffff;}</style></defs><title>Asset 45</title><g id="Layer_2" data-name="Layer 2"><g id="Layer_1-2" data-name="Layer 1"><path class="cls-1" d="M20.64,14.69l-3.26,1.44a6.6,6.6,0,0,1,3.26,6v4.7A4.65,4.65,0,0,1,18.1,31.3l-3,1.34v2.5l-.1,0v0L10.7,37.06v.1L5.62,36V32.74a8,8,0,0,1-4-2.78A7.11,7.11,0,0,1,0,25.44V22.61H0v0L3.65,21A6.46,6.46,0,0,1,1,18.62a6,6,0,0,1-1-3.31V9.94A4.58,4.58,0,0,1,2.78,5.42l2.83-1.3V2l0,0V2L9.94,0V0l5.14,1.1v3a7.92,7.92,0,0,1,4,2.76,7.09,7.09,0,0,1,1.61,4.49ZM.34,9.94v5.38A5.55,5.55,0,0,0,1.06,18l4.08-1.87a5.71,5.71,0,0,1-.77-2.88V7.92A5.14,5.14,0,0,1,5,5.28H4.9A4.36,4.36,0,0,0,1.61,6.6,4.61,4.61,0,0,0,.34,9.94Zm0,15.5a6.93,6.93,0,0,0,1.58,4.37,7.29,7.29,0,0,0,3.84,2.64l4-1.78a8.54,8.54,0,0,1-3.6-2.5Q5.57,27.65,5,27a1.93,1.93,0,0,1-.6-1.42V23.86L.34,23ZM4,21.12.48,22.7l3.89.82v-2.3ZM1.2,18.29A5.73,5.73,0,0,0,4,20.78l.34-.14v0l5.47,1.15,3.46-1.54L9.12,19.3a5.94,5.94,0,0,1-3.84-2.83ZM5.62,4.46,4.42,5h.82a5.1,5.1,0,0,1,.38-.43Zm8.26,8.45,2.11.48A6.93,6.93,0,0,0,14.38,9a7.4,7.4,0,0,0-4-2.64v-3h-.24v0L5.9,5.33v0a2.72,2.72,0,0,0-.53,0A4.89,4.89,0,0,0,4.7,7.92V13.3A5.85,5.85,0,0,0,6,16.94,5.27,5.27,0,0,0,9.17,19l4.7,1V25.3q0,1.06-.48,1.25l0,0L9.12,28.51a1,1,0,0,1-.62.19q-1.73,0-1.73-1.92V24.34L4.7,23.9v1.73A1.63,1.63,0,0,0,5.23,27l1.2,1a7.61,7.61,0,0,0,3.84,2.54v3.31h.14v-.34h0v0l4.27-1.92v0a3.2,3.2,0,0,0,.53,0A4.72,4.72,0,0,0,16,28.85v-4.7a7,7,0,0,0-1.25-4,5.14,5.14,0,0,0-3.22-2.28l-4.75-1V12q0-1.05.62-1.34l4.18-1.87q.1-.24.62-.24,1.68,0,1.68,2ZM9.36,22,4.7,21S6.29,21.34,9.36,22Zm-.14.29q-1.73-.29-4.51-1v2.26L6.91,24l2.3-1ZM5.9,2.4V4A16.65,16.65,0,0,1,8.69,3Zm0,2.26V5L9.65,3.31l-.38,0A4.58,4.58,0,0,0,5.9,4.66Zm0,30.91,4-1.82V30.91l-4,1.82ZM9.94.38,6.1,2.16,9.94,3ZM6.1,35.81l4.32.91V34.13l-.34-.1ZM9.22,15.22V12.48q0-1.63-1.39-1.63-.72,0-.72,1.1v4.56l2.64-1.2ZM7.1,24.34v2.45a1.72,1.72,0,0,0,.29,1.06l0-.1,1.87-.82V23.38ZM18.91,18A5.89,5.89,0,0,0,17,16.32l-.67.29,0-.14v.24l-6.1-1.3L7.39,16.7l4.18.86a5.3,5.3,0,0,1,3.22,2.21Zm-9.7,9.31L7.54,28a1.4,1.4,0,0,0,1,.34q.72,0,.72-1Zm1.92-16.7a5.53,5.53,0,0,1,.1-1.34l-3,1.34a1.31,1.31,0,0,1,1.1.82Zm-1.73,1.1a17.09,17.09,0,0,1,.14,3.17l1.58-.72V10.85Zm.14,15.46a3.13,3.13,0,0,1-.1.91l3.07-1.39a1.23,1.23,0,0,1-.91-.48Zm1.3-4.85-1-.19-.34.14v.67Zm.58,3.65a10.18,10.18,0,0,1-.29-3.41l-1.58.72v3.55ZM9.84,15l.38,0,.91-.38V14.4Zm4.7-13.68L10.27.43V3l.34.1ZM12.86,26.4q.72,0,.72-1.1V20.4l-3.22,1.44,1.1.24v2.69Q11.47,26.4,12.86,26.4ZM14.74,1.58l-4,1.82V6l4-1.82Zm0,33.17v-2a8.12,8.12,0,0,1-3.26,1.06,6.14,6.14,0,0,1-.77,0v.1Zm-4,2L14.54,35l-3.84-.82Zm.67-21.79-.62.29L16,16.32v-.43Zm6.91-8.45a7.51,7.51,0,0,0-3.36-2.11l-4,1.82A7.22,7.22,0,0,1,14.21,8.3ZM13.68,32.93a3.34,3.34,0,0,0,1.06-.77v-.34L10.94,33.5a2.42,2.42,0,0,0,.48,0A4.47,4.47,0,0,0,13.68,33ZM11.81,9q-.34.1-.34.91v.53l1.92-.91a1.22,1.22,0,0,0-1.2-.67.69.69,0,0,0-.38.1Zm1.78,4V10.42a2.3,2.3,0,0,0-.1-.62l-2,1V14Zm-2.11,1.63q1.78.29,4.51,1V13.68l-2.21-.43-2.3,1.06Zm8.88-3.31a6.46,6.46,0,0,0-1.82-4.61L14.45,8.54a6.83,6.83,0,0,1,1.87,4.9l4,.86Zm0,10.8a6.52,6.52,0,0,0-1.3-3.94L15,20a6.92,6.92,0,0,1,1.34,4.13v4.7a5.24,5.24,0,0,1-.67,2.69h.14a4.34,4.34,0,0,0,3.31-1.32,4.73,4.73,0,0,0,1.25-3.38ZM15.07,32.35l1.1-.53a3.05,3.05,0,0,1-.77,0,2.22,2.22,0,0,1-.34.43ZM17,16l3.07-1.39-3.79-.82v1.87Zm-.72,0v.34l.34-.19Z"/></g></g></svg>