<svg xmlns="http://www.w3.org/2000/svg" viewBox="0 0 19.06 37.2"><defs><style>.cls-1{fill:#ffffff;}</style></defs><title>Asset 5</title><g id="Layer_2" data-name="Layer 2"><g id="Layer_1-2" data-name="Layer 1"><path class="cls-1" d="M18.91,8.54l.14.29-.14,0V9l-.19,0-5.09,1.82v.14l-1.25-.24v4.56L18,16.42a1.18,1.18,0,0,0,0,.43h0v5.62l-.29,0-5,1.78v.19l-.38,0v3.46l6.53,1.39v6h0v0L13.63,37.1v0h-.1l-.14,0v-.1L0,34.27V1.92L.1,2,5.33.1V0l.14,0,.1,0V0L18.91,2.88ZM.34,33.94l5-1.78V3.41l-5-1.1Zm5-33.5L.67,2.06l4.66,1ZM.77,34.13,13.3,36.77V34L5.57,32.4Zm4.85-31,8,1.73,4.85-1.73L5.62.38Zm6.72,4.13,1,.19V5.09L5.62,3.46l0,28.66,7.63,1.63V31.54h0l0-.19L6.77,30V22.8l.1,0v-.1l5.47-2,0,.14,0,0v-2.4l-5.66-1.2V9.12h.1L12.1,7.25v0h.24Zm-.24,7.82V10.56L7.1,9.5v7.34Zm0,12.72V24.24l-5-1.06v6.38ZM7.15,17.14l5.62,1.2v0l4.94-1.73-5.62-1.2v0ZM12.1,24V21.22L7.3,22.9Zm0-16.37L7.44,9.26l4.66,1Zm.14,20.5-4.8,1.73,6.1,1.3,4.85-1.73Zm.14-17.76.91.19V7.78l-.91-.19Zm0,13.68,0,0V21.26h0Zm5.38-1.92V16.94l-5,1.78V21Zm-5,1.78,4.42-1.58-4.42-.91Zm.86-18.67V7.54l5,1.06V3.41Zm0,5.23,4.51-1.63-4.51-1Zm5,19.2-5,1.78v2.4l5,1.06Zm-5,7.2,4.7-1.68-4.7-1Z"/></g></g></svg>