<svg xmlns="http://www.w3.org/2000/svg" viewBox="0 0 19.44 35.9"><defs><style>.cls-1{fill:#ffffff;}</style></defs><title>Asset 6</title><g id="Layer_2" data-name="Layer 2"><g id="Layer_1-2" data-name="Layer 1"><path class="cls-1" d="M19.44,3V9l-.29,0V9L13.87,10.9V11l-1.34-.24V15l5.71,1.2v6.1l-.14,0-5.38,1.87,0-.19v.34h-.14v9.6h-.14L6.91,35.81v.1L0,34.42V2l.24,0,0,0L5.57.1V0ZM.34,2.4V34.18h0l0-.1,5.23-1.82V3.5Zm5.23-2L.67,2.16l4.9,1ZM.82,34.27l5.81,1.25V32.64l-.77-.14Zm18-31.1L5.9.38V3.26l7.92,1.68Zm-6.67,4,1.34.29V5.18L5.9,3.6V32.16l.72.19V22.7h.1l5.47-2v0l.14,0V18.48l-5.71-1.2V9.17h.1l5.47-2Zm0,7.92V10.66L6.91,9.55V17L7,17l0-.1Zm0,18.43V24.19l-5.28-1.1V32.4Zm-5.28,2,4.85-1.73-4.85-1Zm5.28-25.15V7.54L7.3,9.31Zm0,13.54V21.07L7.3,22.85Zm.29-8.54-5,1.82,4.94,1.06,5-1.82Zm0-4.9,1,.19V7.78l-1-.24ZM18,21.94V16.51l-.1,0,0,.1-5.23,1.87v2.35Zm-5.28,1.92,4.85-1.73-4.85-1Zm1.2-18.58V7.49L19.1,8.64V3.41Zm0,5.28,4.75-1.73-4.75-1Z"/></g></g></svg>