<svg xmlns="http://www.w3.org/2000/svg" viewBox="0 0 22.03 37.92"><defs><style>.cls-1{fill:#ffffff;}</style></defs><title>Asset 10</title><g id="Layer_2" data-name="Layer 2"><g id="Layer_1-2" data-name="Layer 1"><path class="cls-1" d="M15,2V2L22,3.46V35.9l-.14,0v0l-5.42,1.92v.1l-7.1-1.49V35l-2.26.82V36L0,34.42V2H.14V2L5.62,0V0l7.06,1.49V2.83Zm-9.36,30V3.5L.34,2.4V34ZM.53,34.22l6.24,1.3V32.64L5.62,32.4ZM5.62.38l-5,1.73,5,1.1ZM12,1.68,5.9.38V3.26L7,3.5v0Zm4.13,32.64V5.76l-.86-.19v9.31l-.1,0,0,.1L9.74,16.85l0-.1v.14l-2.93-.62V3.74L5.9,3.6V32.16l.86.19V21.7l.14,0v-.1l5.47-1.92v0l2.88.62V34.13ZM9.55,4l0,0,2.88-1V1.87L7.1,3.74V15.89l2.26-.82V4Zm-2.45,18V32.4l2.26.48V22.56Zm0,13.39,2.26-.82V33.22L7.1,32.74ZM9.6,22.32l2.78-1V20l-5,1.82ZM7.39,16.08l2,.43v-1.1ZM9.7,4.37V14.93l2.69-1v-9Zm2.78,9.94-2.78,1v1.3l5-1.82Zm0,19.54,0,0-2.78,1V36L15,34.18V20.74l-2.3.82V33.89ZM9.7,32.93l2.69.58V21.65l-2.69,1Zm2.26.82L9.7,33.26v1.3ZM10,4.13l2.35.48V3.31Zm0,32.11,6,1.3V34.66l-1-.24ZM15,2.35l-2.3.82V4.7l2.3.48ZM15,14.5v-9L12.67,5v9Zm-.29,6-2-.43v1.15ZM21.5,3.7,15.26,2.35V5.23l1.15.24Zm-5,2.11V34.37l5.28,1.15V3.94Zm0,31.68,4.9-1.73-4.9-1.06Z"/></g></g></svg>