<svg xmlns="http://www.w3.org/2000/svg" viewBox="0 0 21.84 35.09"><defs><style>.cls-1{fill:#231f20;}</style></defs><title>Asset 14</title><g id="Layer_2" data-name="Layer 2"><g id="Layer_1-2" data-name="Layer 1"><path class="cls-1" d="M14.78.14V0l7.06,1.49V28a4.75,4.75,0,0,1-2.35,4.42v0q-1.82.67-5.47,1.92a4.79,4.79,0,0,1-2.59.72,44.38,44.38,0,0,1-5.23-1A7.81,7.81,0,0,1,1.8,31.39,7.32,7.32,0,0,1,0,26.59V21l.19,0v0l5.38-1.92V19l3.65.77V2h0v-.1L14.74,0ZM.34,26.59a7,7,0,0,0,2,4.85l5.18-1.82a2.54,2.54,0,0,1-.62-1,4,4,0,0,1-.48-.77,7,7,0,0,1-.82-3.26V22.51L.34,21.36Zm5.23-7.2L.67,21.12l4.9,1.06Zm-3,12.34a7.22,7.22,0,0,0,3.7,2.06l3.94.86a6,6,0,0,0,1.25.14,4.21,4.21,0,0,0,3.74-2l-4-.91a7.91,7.91,0,0,1-3.36-2.06ZM9.22,20.06,5.9,19.34v2.88l1,.24,2.3-.82ZM5.9,24.58a6.82,6.82,0,0,0,.86,3.31V22.75l-.86-.19ZM7.1,22.7V28a3.21,3.21,0,0,0,0,.53l.14.19L9.22,28V22ZM8,29.45a.83.83,0,0,0,.48.17q.77,0,.77-1.2v0L7.49,29A2.49,2.49,0,0,0,8,29.45Zm1.34,0a.9.9,0,0,1-.86.43h-.1a6.7,6.7,0,0,0,3.26,1.82q.1,0,3.74.82A4.89,4.89,0,0,0,16,30.1V3.79l-.91-.19V26.4q0,1.49-1.06,1.49a.42.42,0,0,1-.19,0Zm.19-1.2a5.38,5.38,0,0,1,0,.82L13.3,27.7a1.22,1.22,0,0,1-.67-.53ZM9.5,2.4V19.78l3.17.67v5.42q0,1.58,1.1,1.68l.82-.29a1.73,1.73,0,0,0,.19-.86V3.5Zm0,19.1,2.5-.86-2.5-.53Zm2.83-.67-2.83,1v6.1l3-1.06a3.19,3.19,0,0,1-.14-1ZM14.78.29,9.7,2.11l5.09,1.1Zm2.06,32.78a13.21,13.21,0,0,1-1.34-.19,4,4,0,0,1-.77.91ZM21.26,1.68,15.07.38V3.26l1.06.24ZM16.94,32.74a4.38,4.38,0,0,0,3.34-1.34A4.76,4.76,0,0,0,21.55,28V1.92L16.27,3.79V30a5.52,5.52,0,0,1-.58,2.59A5.52,5.52,0,0,0,16.94,32.74Z"/></g></g></svg>