<svg xmlns="http://www.w3.org/2000/svg" viewBox="0 0 22.13 37.92"><defs><style>.cls-1{fill:#231f20;}</style></defs><title>Asset 15</title><g id="Layer_2" data-name="Layer 2"><g id="Layer_1-2" data-name="Layer 1"><path class="cls-1" d="M14.88,2V2L22.13,3.5V14a5,5,0,0,1-1.32,3.53A4.63,4.63,0,0,1,17.38,19a8.05,8.05,0,0,1,3.41,2.86A7.18,7.18,0,0,1,22.13,26V36l-.19,0-5.42,2v0L9.26,36.38V35.14l-2,.72V36L0,34.37V2H0L5.52,0l0,.14V0l7.25,1.54v1.2ZM5.57,32.16V3.46L.34,2.35V34ZM5.57.34.62,2.11,5.57,3.17ZM.72,34.22l6.19,1.3V32.69l-1.2-.24ZM12.1,1.73,5.9.38V3.22l1.2.29ZM15,19.2A4.45,4.45,0,0,0,16.22,16V5.71l-1.06-.19v9.07q0,1.06-.48,1.3l0,0L9.26,17.86l0-.1a.75.75,0,0,1-.62.24q-.14,0-1.68-.34V3.74l-1-.19V32.16l1,.24V22.46l.1,0,4.13-1.44L10.9,21l0-.29H11v0ZM9.41,4v0l3.12-1.1V1.92L7.25,3.79V17.28l2-.72V3.94ZM7.25,22.85v9.6l2,.43V24.67a1.62,1.62,0,0,0-.53-1.39A7.58,7.58,0,0,0,7.25,22.85Zm0,12.72,2-.77V33.22l-2-.43ZM8.59,17.71q.58,0,.67-.82l-1.68.62A8.52,8.52,0,0,0,8.59,17.71Zm.58,5.57,0-.14,3.41-1.2V21.7q-.43-.24-1-.48L7.63,22.61a6.64,6.64,0,0,0,.82.19A1.79,1.79,0,0,1,9.17,23.28Zm3.36,10.27V22.27l-3.26,1.1a2.23,2.23,0,0,1,.34,1.3V33Zm0-17.81-3,1.06a3.56,3.56,0,0,1-.14.67L13.63,16ZM9.6,4.32V16.46l2.93-1.06V4.94Zm3.12,29.62L9.6,35v1l5.28-1.87V24a9.25,9.25,0,0,0-1.82-1.87l-.24,0V34Zm-.58-.14L9.6,33.26V34.7ZM9.94,4.08l2.59.53V3.17Zm.14,32.11,6.14,1.34V34.7l-1.15-.29Zm2.45-15.7.19,0a4.21,4.21,0,0,0,1.68-.77l-2.59.91.67-.1s0,0,0,0Zm0,.86v-.43a2.37,2.37,0,0,0-.58.14Zm2.35-19-2.06.72V4.7l2.06.43Zm0,12.29V5.47L12.82,5V15.46q1.25.29,1.34.29Q14.88,15.74,14.88,14.64ZM13.1,21.7l1.2-.38a6.2,6.2,0,0,0-1.49-.43v.67ZM21.79,26a6.9,6.9,0,0,0-1.54-4.3A7.69,7.69,0,0,0,16.51,19l-1.3.48a5.08,5.08,0,0,1-1.87,1.2Q14.74,21,15,21.74a8.61,8.61,0,0,1,.14,2.11A7.21,7.21,0,0,1,16.51,28v6.43l5.28,1.15Zm-6.91-2.59V22.7a1.71,1.71,0,0,0-.34-1.15l-1.15.38A8.22,8.22,0,0,1,14.88,23.42ZM21.36,3.65l-6.19-1.3V5.18l1.2.24ZM16.22,34.37V28a6.73,6.73,0,0,0-1.06-3.55v9.7Zm.34-15.65a4.78,4.78,0,0,0,3.74-1.13A4.54,4.54,0,0,0,21.79,14V3.84L16.51,5.71V16a5,5,0,0,1-.91,3l.91-.34v.1Zm0,18.82,4.9-1.73-4.9-1.06Z"/></g></g></svg>