<svg xmlns="http://www.w3.org/2000/svg" viewBox="0 0 31.82 37.68"><defs><style>.cls-1{fill:#ffffff;}</style></defs><title>Asset 17</title><g id="Layer_2" data-name="Layer 2"><g id="Layer_1-2" data-name="Layer 1"><path class="cls-1" d="M31.82,35.81h0l-4.94,1.78v.1L20.16,36.1V33.94l-3.89,1.39,0,.1-5.66-1.2-.48-2.4L6.29,33.17v.14L0,32V1.87H0L5,.1V0L15.36,2.21l.72,4.7.29-1.58.1,0v0l4.9-1.73,0-.1L31.82,5.71ZM5,29.9V3.22l-4.7-1V31.58ZM5,.38.53,2,5,2.93ZM.58,31.78,6,32.93V30.34l-.82-.19ZM14.74,2.4,5.28.38V3L10.13,4Zm-9.46.91V29.86L6,30V11.38H6l0-.1,4.94-1.73-.82-5.23Zm1,9.5V30.1l3.6.77Zm0,20.06L10,31.54l0-.38-3.7-.77ZM11,31.1,11,9.84,6.34,11.47l3.89,19.44Zm-.34.24-.43-.1,0,.19ZM15.94,7.82l-.82-5.28L10.37,4.22l.86,5.28h.1L13.63,21l1.54-8.78q.1-.43.53-2.21A9.93,9.93,0,0,0,15.94,7.82Zm-5.57,23.9.43,2.11,4.75-1.68-1.73-8.59-.38.14h-.29L11.33,12V31.44h-.1Zm.77,2.3L16,35.09l.53-2.54-.77-.14ZM12,14.11,13.3,22.8l.19-1Zm1.68,8.5-.14.77.29-.1Zm.14-.77.29,1.34,4.08-1.44L16.08,8.69ZM25.58,11.9,25.44,34l1.1.24V7.82L21.12,6.67,18.43,21.89h0l0,0-4.32,1.54,1.73,8.64.72.14L20.3,13.73h.1v0l4.9-1.78v0Zm-9-6.19-.38,2.11L18.29,21l2.54-14.4ZM16.32,35l3.84-1.39v-.24l-3.36-.72Zm3.84-2,.14-17.76L16.85,32.35ZM21.31,3.94,16.94,5.47l3.94.82ZM21,33.22l4.22-21-4.66,1.68-.14,19.2Zm.19.34-.77.29v1.82L25.15,34l.14-20.59Zm-.58-.1-.19,0v.1Zm0,2.45,5.9,1.39V34.56l-1.3-.29Zm10.61-30L21.6,3.84l-.43,2.54,5.47,1.15ZM26.83,7.78V34.32l4.7,1.15V6.1Zm0,29.47,4.42-1.58-4.42-1Z"/></g></g></svg>