<svg xmlns="http://www.w3.org/2000/svg" viewBox="0 0 23.52 38.11"><defs><style>.cls-1{fill:#231f20;}</style></defs><title>Asset 18</title><g id="Layer_2" data-name="Layer 2"><g id="Layer_1-2" data-name="Layer 1"><path class="cls-1" d="M16.94,2.45l0,0,6.53,1.39v32.3h0l-5.28,1.87v0H18v0l-5.9-1.25-1-2.78L6.72,35.62v0H6.58L0,34.22V1.92H0L5.33.1V0l.1,0h0l5.9,1.25,1,2.78L16.85,2.5v0l0,0ZM.34,33.89l5-1.78V3.36L.34,2.3ZM5.33.43.67,2.06l4.66,1ZM.77,34.08l5.66,1.2V32.54l-.86-.14Zm10-32.59L5.62.38V3.12l.34.1ZM5.62,32.06l.82.19,0-11.18,4.94-1.78L5.81,3.5l-.19,0ZM12,4.18l-.86-2.5-5,1.78,5.38,15.22V4.37ZM6.72,22V32.3l4.08.86Zm0,13.3L11,33.74l-.1-.24-4.22-.86Zm5-1.92,0-13.78-.19,0-4.7,1.63,4.37,12Zm-.34.29-.14,0,0,0Zm0,.29.91,2.54,5-1.82L12,20.06V33.74h0ZM12,19.15v0l4.7-1.68L12.29,4.85l-.48-.1v14.4Zm0-14.64h.1l0,0ZM17.86,6l-.72-.14V17.66l0,0-5,1.78,5.52,15.17h.14Zm-1-3.22L12.48,4.37l0,.24,4.32.91Zm0,13.92V5.81l-4.18-.86ZM12.77,36.62l5.09,1.1V35l-.29,0ZM22.9,4.08,17.14,2.83V5.57l1,.19Zm.29.24-5,1.78V34.75l5,1.06Zm-5,33.41L22.9,36l-4.7-1Z"/></g></g></svg>