<svg xmlns="http://www.w3.org/2000/svg" viewBox="0 0 21.36 35.57"><defs><style>.cls-1{fill:#ffffff;}</style></defs><title>Asset 19</title><g id="Layer_2" data-name="Layer 2"><g id="Layer_1-2" data-name="Layer 1"><path class="cls-1" d="M20.54,5.23a6.49,6.49,0,0,1,.82,3.17V28.7a4.55,4.55,0,0,1-2.88,4.56v.1l-5.42,1.92v0a5,5,0,0,1-1.82.34A6,6,0,0,1,10,35.42L6,34.61a7.47,7.47,0,0,1-4.27-2.66A7.16,7.16,0,0,1,0,27.26V7Q0,3.12,3.46,2.11L8,.53A7.48,7.48,0,0,1,10.08,0a6.21,6.21,0,0,1,1.3.14L15.31,1A7.67,7.67,0,0,1,20.54,5.23ZM.34,27.26a6.93,6.93,0,0,0,1.54,4.27l5-1.78a7.12,7.12,0,0,1-1.58-4.42V5A5.23,5.23,0,0,1,6,2.35a7.06,7.06,0,0,0-1.15-.1A4.17,4.17,0,0,0,1.56,3.6,4.8,4.8,0,0,0,.34,7Zm1.73,4.51a7.3,7.3,0,0,0,4,2.54l3.94.82a6,6,0,0,0,1.25.14,4.25,4.25,0,0,0,3.6-1.82q-4-.86-4.32-1A7.27,7.27,0,0,1,7.06,30ZM6.91,1.2l-2,.72a5.53,5.53,0,0,1,1.25.14A5,5,0,0,1,6.91,1.2Zm8.16,32a4.64,4.64,0,0,0,.67-2.54V10.32a7.09,7.09,0,0,0-1.68-4.54A6.88,6.88,0,0,0,10,3.22l-3.7-.77A4.88,4.88,0,0,0,5.62,5v20.3a6.77,6.77,0,0,0,1.15,3.74,3.48,3.48,0,0,1,0-.58V9q0-1.3.82-1.44h0q1.82-.62,5.42-2l0,0q1.68-.1,1.68,1.92V27.12a1.8,1.8,0,0,1-.34,1.2v0L9,30.24a.75.75,0,0,1-.62.24,1.51,1.51,0,0,1-.58-.14,7.76,7.76,0,0,0,3.36,2Q11.76,32.45,15.07,33.17ZM19.39,3.94a6.94,6.94,0,0,0-3.65-2.5l-4.42-1a5.82,5.82,0,0,0-1.2-.14A4.38,4.38,0,0,0,9,.48a4.74,4.74,0,0,0-2.5,1.68q3.84.82,4.37,1A7.1,7.1,0,0,1,14.4,5.71ZM7,8.88V28.61a1.81,1.81,0,0,0,.14.72l1.92-.67V9.41a2,2,0,0,0-.19-.91l0,0-.1-.29a1.28,1.28,0,0,0-1-.43Q7,7.82,7,8.88ZM8.78,30a1.32,1.32,0,0,0,.29-1v0l-1.78.62a1.16,1.16,0,0,0,1.06.53Q8.69,30.14,8.78,30ZM12,7.06a2.21,2.21,0,0,1,.14-.86L8.21,7.58A1.38,1.38,0,0,1,9,8.16ZM9.36,28.51l2.78-1a2.59,2.59,0,0,1-.14-.91V7.39l-2.83,1a2.6,2.6,0,0,1,.19,1.06Zm0,.34a3.39,3.39,0,0,1-.1,1l3.84-1.34a1.6,1.6,0,0,1-.82-.62ZM13,6q-.67,0-.72,1L14,6.38A1.29,1.29,0,0,0,13,6Zm.62,22.27q.72,0,.72-1.06V7.49a1.92,1.92,0,0,0-.19-.86l-1.87.67V26.69Q12.29,28.23,13.63,28.22Zm.67,6.29,2.4-.86a4.44,4.44,0,0,1-1.49-.14A4.59,4.59,0,0,1,14.3,34.51ZM21,28.7V8.4a7,7,0,0,0-1.44-4.22L14.59,6a7.35,7.35,0,0,1,1.49,4.37v20.3a5.14,5.14,0,0,1-.67,2.64,6.94,6.94,0,0,0,1.15.1A4.19,4.19,0,0,0,19.78,32,4.68,4.68,0,0,0,21,28.7Z"/></g></g></svg>