<svg xmlns="http://www.w3.org/2000/svg" viewBox="0 0 21.55 35.62"><defs><style>.cls-1{fill:#231f20;}</style></defs><title>Asset 21</title><g id="Layer_2" data-name="Layer 2"><g id="Layer_1-2" data-name="Layer 1"><path class="cls-1" d="M5.62,0,15.5,2.11A7.44,7.44,0,0,1,19.78,4.8a7.26,7.26,0,0,1,1.78,4.7v7.78q0,3.74-3.22,4.8l0,0L13,24l0,0-.48.14V33.5l-.19.14v0L6.82,35.62v0L0,34.13V2.06l.19-.14ZM5.42,3.36.34,2.26V33.84L5.42,32ZM.72,2.06l4.7,1V.38ZM5.66,32.26.82,34l5.9,1.25V32.5ZM19.82,5.38a7.17,7.17,0,0,0-4.37-3L5.71.34V3.12L10.08,4A7.54,7.54,0,0,1,14.74,7.2Zm-4,14.11V11.42a6.58,6.58,0,0,0-1.06-3.55,2.3,2.3,0,0,1,.1.62v7A1.33,1.33,0,0,1,14,16.94Q8.64,18.86,8.4,18.86t-1.68-.34L6.82,8.3a.14.14,0,0,0,.1,0v0l5.42-2A12.91,12.91,0,0,1,14,6.77,7,7,0,0,0,10,4.32L5.71,3.41V32l1,.19V23.23l.19-.14,0,0,5.38-2,2.88.62A4.45,4.45,0,0,0,15.84,19.49ZM9.12,10.42a1.42,1.42,0,0,0-.58-1.34A4.83,4.83,0,0,0,7,8.64v9.6l2.11-.77ZM7,18.24v0h0Zm5.14,15.07V24.19a6.06,6.06,0,0,1-.77,0A40.09,40.09,0,0,1,7,23.42v8.78ZM7,35.18l4.7-1.63-4.7-1ZM12.14,8.3V6.77L7.54,8.4a4.87,4.87,0,0,1,1,.24,1.58,1.58,0,0,1,.72.72ZM8.78,18.43h0a1,1,0,0,0,.29-.58l-1.58.53a7.89,7.89,0,0,0,.86.19A.52.52,0,0,0,8.78,18.43Zm3.36,5.42V21.6L7.54,23.23a31.48,31.48,0,0,0,3.84.72A3.14,3.14,0,0,0,12.14,23.86Zm0-7.44V8.64l-2.83,1a1.93,1.93,0,0,1,.14.77v7Zm-2.74,1.3a1.2,1.2,0,0,1-.1.53l4-1.39-.91-.19Zm3-9.5,1.92-.67q-.29-.48-1.92-.86Zm2.11,7.39V8.45a2,2,0,0,0-.1-.62l-2,.72,0,7.82q1.2.24,1.34.24Q14.54,16.61,14.54,15.6Zm-2.11,5.9v2.3A4.29,4.29,0,0,0,15,22.08Zm2,1.68,2.5-.86a7.15,7.15,0,0,1-1.54-.19A3.94,3.94,0,0,1,14.4,23.18Zm6.86-5.76V9.5A6.7,6.7,0,0,0,20,5.66L14.93,7.49a7,7,0,0,1,1.25,3.94V19.2a5.13,5.13,0,0,1-.62,2.64,6.19,6.19,0,0,0,1.3.14A4.19,4.19,0,0,0,20,20.69,4.56,4.56,0,0,0,21.26,17.42Z"/></g></g></svg>