<svg xmlns="http://www.w3.org/2000/svg" viewBox="0 0 21.5 37.73"><defs><style>.cls-1{fill:#ffffff;}</style></defs><title>Asset 22</title><g id="Layer_2" data-name="Layer 2"><g id="Layer_1-2" data-name="Layer 1"><path class="cls-1" d="M21.5,8.3V27.07a4.51,4.51,0,0,1-2.78,4.56v0l-2.83,1v3l-.14.1,0,0-5.42,1.92-4.66-1V32.88a7.27,7.27,0,0,1-4-2.71A7.28,7.28,0,0,1,0,25.63V6.86A4.48,4.48,0,0,1,3,2.26v0L8.45.29v0A4.86,4.86,0,0,1,10.22,0a52.36,52.36,0,0,1,5.18,1,7.49,7.49,0,0,1,4.32,2.66A7.16,7.16,0,0,1,21.5,8.3ZM.34,6.86V25.63a6.76,6.76,0,0,0,1.25,3.89l5.09-1.78a7.28,7.28,0,0,1-1.25-4V5A5.46,5.46,0,0,1,6,2.35,5.13,5.13,0,0,0,4.8,2.21,4.19,4.19,0,0,0,1.58,3.55,4.68,4.68,0,0,0,.34,6.86ZM1.78,29.81a7.29,7.29,0,0,0,4,2.83l4.94-1.78A7.68,7.68,0,0,1,6.86,28ZM7.2,1.06l-2.45.86a8.62,8.62,0,0,1,1.49.14A4.06,4.06,0,0,1,7.2,1.06Zm6,4.51a1.47,1.47,0,0,1,1,.38A7.44,7.44,0,0,0,10.7,3.41a43.62,43.62,0,0,0-4.32-1,4.38,4.38,0,0,0-.67,2.4V23.71a6.71,6.71,0,0,0,1,3.5V8.93a1.51,1.51,0,0,1,.43-1.25l.48-.14,4.94-1.78A5.06,5.06,0,0,1,13.15,5.57ZM11,31.06,6,32.88v3.5l4.18-1.49V33.74l.19-.14h.1l.62-.19Zm-4.7,5.52,3.79.82V35.23ZM19.68,4.13a7.28,7.28,0,0,0-4.37-2.88L11.47.43A6,6,0,0,0,10.22.29,4.26,4.26,0,0,0,6.58,2.16Q10.37,3,11,3.22A7.56,7.56,0,0,1,14.59,6ZM7.34,8a1.12,1.12,0,0,0-.34,1V27a1.81,1.81,0,0,0,.14.72L9.07,27V9.41Q9.07,8.06,8,7.87c-.16-.06-.26-.08-.29,0Zm-.1,20a1.25,1.25,0,0,0,1.1.58q.72,0,.72-1v-.19Zm8.5,1.1V10.22a6.67,6.67,0,0,0-1.1-3.65,2.61,2.61,0,0,1,.14.91v18q0,1.39-1,1.39h-.24L9.12,28.46a.84.84,0,0,1-.77.38,1.23,1.23,0,0,1-.38,0,7.49,7.49,0,0,0,3.36,2v2.5l3.41-1.2a3.08,3.08,0,0,0,.62-1V31h0A5.39,5.39,0,0,0,15.74,29.09ZM12.14,7.15a3.65,3.65,0,0,1,.1-1L8.3,7.63a1.16,1.16,0,0,1,.77.62ZM9.22,8.5a2.86,2.86,0,0,1,.14.91V26.88l2.88-1a3.31,3.31,0,0,1-.1-.82V7.49Zm.14,18.72a5.19,5.19,0,0,1,0,.86l3.74-1.34a1.48,1.48,0,0,1-.67-.58ZM11,34.56V34a3.58,3.58,0,0,0-.58,0v.86Zm-.58,2.78,4.61-1.68-3.89-.82-.72.24Zm.86-3.65a4,4,0,0,0,2.93-1.1l-2.93,1Zm4.22,1.78V32.78l-2.26.82a5,5,0,0,1-2,.38v.58ZM12.77,6V6h0a1.23,1.23,0,0,0-.29,1v0l1.78-.62a1.16,1.16,0,0,0-1.06-.53A.68.68,0,0,0,12.77,6Zm.72,20.59.82-.29a1.73,1.73,0,0,0,.14-.77v-18a2.82,2.82,0,0,0-.1-.77l-1.92.67V25.06A1.36,1.36,0,0,0,13.49,26.59Zm2.06,5.86v-.34l-.62.24-.53.53Zm5.62-5.38V8.3a6.81,6.81,0,0,0-1.3-3.94L14.78,6.19a7.1,7.1,0,0,1,1.3,4V29a5.73,5.73,0,0,1-.29,1.82l5-1.78v0A5.15,5.15,0,0,0,21.17,27.07Zm-4.46,4.7a4.1,4.1,0,0,0,3.94-2.35l-5,1.78a3.57,3.57,0,0,1-.38.67l.38-.1.1-.1A5.32,5.32,0,0,0,16.7,31.78Zm-.82.58.82-.29a6.53,6.53,0,0,1-.82,0Z"/></g></g></svg>