<svg xmlns="http://www.w3.org/2000/svg" viewBox="0 0 21.79 37.68"><defs><style>.cls-1{fill:#231f20;}</style></defs><title>Asset 23</title><g id="Layer_2" data-name="Layer 2"><g id="Layer_1-2" data-name="Layer 1"><path class="cls-1" d="M5.47,0,15.6,2.16A7.4,7.4,0,0,1,20,5a7.86,7.86,0,0,1,1.82,4.92v4.32a4.8,4.8,0,0,1-4.7,4.94A8,8,0,0,1,20.47,22a7,7,0,0,1,1.32,4.1v9.65l-5.47,1.92L9.17,36.14v-1.2l-2,.67v.1L0,34.13V1.92ZM.34,33.79,5.42,32V3.36L.34,2.3ZM5.42.34.62,2l4.8,1.06ZM.77,34l6.14,1.34V32.54l-1.3-.29ZM19.2,4.61a7,7,0,0,0-3.7-2.16L5.71.38V3.12l4.46,1a7.47,7.47,0,0,1,3.94,2.35ZM14.83,19.39a4.35,4.35,0,0,0,1.25-3.22V11.86A7.48,7.48,0,0,0,14.3,7.13a7.31,7.31,0,0,0-4.22-2.76L5.71,3.46V32l1.2.24,0-9.65,3.89-1.44,0-.24,0,0,0,0h0ZM12.34,6.77a8,8,0,0,1,1.87.53,1.8,1.8,0,0,1,.67,1.63v5.81q0,1-.38,1.25l-.48.19L9.07,17.9a.69.69,0,0,1-.58.19q-.14,0-1.58-.29V8.69l.1,0,5.33-1.87ZM7.2,9.07v8.4l2-.67V10.9A1.62,1.62,0,0,0,8.69,9.5,9.51,9.51,0,0,0,7.2,9.07Zm0,13.87V32.3l2,.43v-8a1.48,1.48,0,0,0-.53-1.34A4.52,4.52,0,0,0,7.2,22.94Zm0,12.34,2-.67V33l-2-.43Zm2-11.86,0,0,3.22-1.1v-.48a6.77,6.77,0,0,0-1-.48L7.44,22.7q.82.14,1,.19A2,2,0,0,1,9.17,23.42ZM12.34,7.2,7.58,8.83l1,.24a1.64,1.64,0,0,1,.72.67l3.07-1.06ZM7.68,17.66q.72.14.82.14c.35,0,.56-.22.62-.67Zm4.66,15.74V22.61L9.26,23.66a2.16,2.16,0,0,1,.24,1.06v8.06Zm0-17.76V9l-3,1a2.46,2.46,0,0,1,.14.86v5.76Zm.19.29L9.46,17a1.07,1.07,0,0,1-.1.48l3.94-1.39Zm0,17.81-3,1.1v.91l5.09-1.82V23.86a6.05,6.05,0,0,0-1.49-1.54l-.48.14V33.79Zm-.58-.1-2.4-.53v1.39ZM9.84,36l6.24,1.34V34.51l-1.34-.29Zm2.5-14.5v-.38a2.62,2.62,0,0,0-.58.1A2.48,2.48,0,0,1,12.34,21.46Zm0-.82.19,0A4.18,4.18,0,0,0,14.21,20l-1.82.62Zm2-12.72a3.15,3.15,0,0,0-1.78-.77V8.54Zm.19,6.86V8.88a2.42,2.42,0,0,0-.1-.67l-1.87.67V15.6a6,6,0,0,0,1.3.24l.38-.1A1.33,1.33,0,0,0,14.59,14.78ZM13.1,22l1.1-.38A3.47,3.47,0,0,0,12.62,21v.62A4.48,4.48,0,0,1,13.1,22Zm-.48,0v.14l.14,0Zm7.92.77a7.44,7.44,0,0,0-4.18-3.55L15,19.68a4.91,4.91,0,0,1-1.82,1.15,4,4,0,0,1,1.34.62h0a8.42,8.42,0,0,1,.29,2.3q.34.43.58.82Zm-6,0a2.14,2.14,0,0,0-.19-1l-1,.34a8.28,8.28,0,0,1,1.15,1.2Zm6.91-8.54V9.94a7.52,7.52,0,0,0-2.06-5L14.3,6.72a7.76,7.76,0,0,1,2.06,5.14v4.32a4.81,4.81,0,0,1-1,3l.91-.29v0A4.71,4.71,0,0,0,20,17.74,4.39,4.39,0,0,0,21.5,14.26ZM16.08,28a6.74,6.74,0,0,0-1.2-3.74V34l1.2.24Zm5.42,7.34V26.11A6.31,6.31,0,0,0,20.69,23L15.6,24.86A7,7,0,0,1,16.37,28v6.24Zm-5.14,2,4.85-1.73-4.85-1Z"/></g></g></svg>