<svg xmlns="http://www.w3.org/2000/svg" viewBox="0 0 31.68 37.54"><defs><style>.cls-1{fill:#ffffff;}</style></defs><title>Asset 46</title><g id="Layer_2" data-name="Layer 2"><g id="Layer_1-2" data-name="Layer 1"><path class="cls-1" d="M21.17,13.68l10.51,2.83L23.18,22l3.12,13.1-.29.14-6.1-7.34,2.16,9.22-.24.14L14,27.89,9.55,30.82l0,.14q-2.06.86-4.51,2.11l.14-.43,0,0h0L8.4,21.17,0,10.9,4.13,9,4,8.93l.24,0h0l7,1.82L13.82,2l0,.19,4-1.82L18,0ZM4.37,9.26l-4,1.82,7.06,1.82ZM.72,11.52l7.87,9.41,4-1.82L7.73,13.34Zm10.46-.43L4.94,9.46l3,3.6,2.5.62ZM8.74,21.17,5.62,32.3l4-2.64,2.83-10.18Zm.82,9L7,31.78l2.35-1.06Zm9.74-3.5-.67-2.78,8.06-5.18L16.75,16l-1.39-5.86L14.83,12h0v0l-4.13,1.82,0,.14-2.35-.58L13,19.06l-.1.24L10.08,29.38,13.63,27A41.19,41.19,0,0,0,17.86,25ZM9.84,30.29l4-2.64-.19-.24-3.7,2.45Zm1-16.75,3.6-1.63-2.93-.72Zm3-10.27-2.21,7.58,3,.82.62-2.16ZM15.6,26.45l-1.73.82.19.19ZM17.81.77,13.92,2.5l1.49,6.38Zm3.84,35.76-2.21-9.17-1.58-1.92q-.24.1-3.6,2.26Zm-4.7-21,3.94-1.78L18,1.25,15.55,9.5Zm.24.24,9.74,2.64,3.94-1.82L21.17,14Zm8.64,18.72L22.94,22.27,19,24l.72,3.17Zm-3-12.67,6.48-4.18-1.92.86.1,0L20.59,23l2.26-1.06ZM22,37.25l4.32-1.92.1.29-4.32,1.92Z"/></g></g></svg>