<svg xmlns="http://www.w3.org/2000/svg" viewBox="0 0 21.6 36.53"><defs><style>.cls-1{fill:#231f20;}</style></defs><title>Asset 27</title><g id="Layer_2" data-name="Layer 2"><g id="Layer_1-2" data-name="Layer 1"><path class="cls-1" d="M14.64,1.92V2l7,1.49V29.57a4.56,4.56,0,0,1-3,4.66v0l-5.47,2v0a4.5,4.5,0,0,1-1.73.34,6.17,6.17,0,0,1-1.3-.14l-3.94-.82a7.69,7.69,0,0,1-4.9-3.5h0V32A8.27,8.27,0,0,1,0,28.18V2H0L5.42,0V0l7,1.49v1.2ZM.34,2.35V28.18a6.71,6.71,0,0,0,1,3.5l5.14-1.82a6.88,6.88,0,0,1-1.06-3.65V3.41Zm5.09-2L.62,2.11l4.8,1ZM1.54,32a7.61,7.61,0,0,0,4.7,3.26l3.89.86a5.55,5.55,0,0,0,1.25.14,4.27,4.27,0,0,0,3.7-1.92,43.79,43.79,0,0,1-4.8-1.15,7.77,7.77,0,0,1-3.6-3ZM11.81,1.68,5.71.38V3.17l1.2.24ZM5.71,26.21a6.49,6.49,0,0,0,1.06,3.5V3.7L5.71,3.5ZM9.22,3.94v-.1l2.93-1V1.92L7.06,3.7V29.52a1.8,1.8,0,0,0,.14.72l2-.72ZM9.17,30v-.14l-1.82.67a1.28,1.28,0,0,0,1.1.53q.43,0,.43-.14A1.25,1.25,0,0,0,9.17,30Zm6.1,4.08a4.8,4.8,0,0,0,.67-2.54V5.66l-1.06-.24V28q0,1.06-.48,1.25v0L9.07,31.15c-.06.16-.27.24-.62.24a1.24,1.24,0,0,1-.38,0,6.77,6.77,0,0,0,3.36,1.87Q11.52,33.26,15.26,34.08ZM12.43,28.7,9.5,29.76a2.3,2.3,0,0,1-.14,1l4-1.39A1.36,1.36,0,0,1,12.43,28.7ZM9.5,4.27V29.42l2.78-1a2.75,2.75,0,0,1-.14-1V4.85ZM9.7,4l2.45.53V3.12Zm4.9-1.78L12.43,3V4.61L14.59,5Zm0,25.82,0-22.7-2.16-.43V27.46q0,1.63,1.39,1.63Q14.54,29.09,14.54,28.08Zm0,7.3,2.4-.82a7.59,7.59,0,0,1-1.49-.14A5.19,5.19,0,0,1,14.5,35.38ZM21,3.65l-6.1-1.3V5.14l1.2.24ZM16.75,34.22A4.36,4.36,0,0,0,20,32.9a4.61,4.61,0,0,0,1.27-3.34V3.84L16.22,5.66V31.54a5.18,5.18,0,0,1-.62,2.59A7.55,7.55,0,0,0,16.75,34.22Z"/></g></g></svg>