<svg xmlns="http://www.w3.org/2000/svg" viewBox="0 0 26.64 37.78"><defs><style>.cls-1{fill:#ffffff;}</style></defs><title>Asset 28</title><g id="Layer_2" data-name="Layer 2"><g id="Layer_1-2" data-name="Layer 1"><path class="cls-1" d="M21.17,35.81l-5.47,2L5.81,35.66,0,2,.1,2V2L5.42,0V0l7.73,1.63.58,3.74.1-.43h.1l0,0L19.2,3v0l.14,0,7.3,1.54ZM.38,2.4,6,35.33l5.14-1.82L6,3.6Zm5.09-2L.58,2.11,6,3.26Zm7.06,1.44L5.81.38l.53,2.93,1.25.29Zm-1,31.58,4.46,1L20.83,6.72l-1.78-.34L16.37,26.11h-.14v0l-5.28,1.92a.2.2,0,0,0-.14,0v0h-.14Q9.22,16.22,7.44,3.89L6.38,3.65Zm-5,2.06,9,1.92.48-2.69-4.46-1Zm7.1-29q-.34-2-.67-4.42L7.78,3.84l.77,4.94q.72,4.46,1.44,8.88a60.28,60.28,0,0,1,.82,9v.24Zm.14,1.2L11,27.7l5-1.78Zm.34-2.35-.14,1.15s0,.16,0,.38q.72,4.42,1.44,8.88a60.87,60.87,0,0,1,.82,8.93v.24L18.77,6.29Zm5.09-1.92L14.4,5l4.42,1ZM16.27,34.75l-.48,2.59,4.75-1.68Zm4.9-28L16.32,34.46l4.56,1L26.21,4.94ZM26,4.7,19.49,3.31,19.1,6,21,6.48Z"/></g></g></svg>