<svg xmlns="http://www.w3.org/2000/svg" viewBox="0 0 37.54 38.02"><defs><style>.cls-1{fill:#ffffff;}</style></defs><title>Asset 29</title><g id="Layer_2" data-name="Layer 2"><g id="Layer_1-2" data-name="Layer 1"><path class="cls-1" d="M30.67,5.47v0l6.86,1.44L32.4,36.14h0v0L27.26,38l0-.14,0,.14L18,36.1l-.29-2-3.22,1.15,0-.14v.19L5.33,33.41,0,1.92H.1v0L5.18,0l0,.19V0l7.06,1.54.48,3.07h0v0L17.9,2.69l7.2,1.54.48,3.12h.1v0ZM.38,2.26,5.57,33l4.95-1.73L5.81,3.41ZM5.28.34.53,2l5.18,1.1Zm6.48,1.39L5.57.38,6,3.17l1,.24ZM5.9,33.22,14.21,35l.34-2.64-3.89-.82ZM9.22,21.84Q8.16,13,6.82,3.65L6.1,3.5ZM12.58,5.28,12,1.92,7.1,3.65l.72,4.61,1.35,8.35A58.49,58.49,0,0,1,9.94,25l0,.24Zm8.59,13.58h.1q-.67-6-1.63-12.48L17.76,6l-2.5,18.53s-1.76.56-5.19,1.78v0l0,.14h0l.82,4.9,3.79.82L16,20.78h.14v0l5-1.82Zm-6.24,5.38-2.21-18L10.08,26Zm-2-19.3,0,.34q0,.19.19,1.1l1.34,8.35a62.74,62.74,0,0,1,.72,8.35v.19L17.47,5.9Zm4.95-1.87L13.2,4.7l4.27.91ZM14.5,34.94l3.27-1.1L17.62,33l-2.79-.62Zm3.07-2.26L16.13,21.94,14.88,32.11Zm1.87.43,1.68-13.87L16.27,21,17.9,32.78Zm5.13-28.7L18.14,3.07l-.38,2.59,2.11.43ZM19.1,33.31,18,33.07l.1.62ZM18,34l.29,1.82h.1l-.1-.19,4.89-1.73L22.56,29h0q-.34-3-1.15-9L19.68,33.46h0Zm.53,1.87,8.35,1.78.48-2.59-4.08-.86ZM25.39,8.06q-.24-1.58-.53-3.41L20,6.38l.67,4.56q1.05,7.15,1.44,11,0,1.25.38,4.37l.24,1.49ZM23.52,34l3.94.82L32,9l-1.44-.29L28,27.17h-.1v0L22.85,29Zm4.18-7L25.54,9.12,22.85,28.7Zm-2-19.3,0,.38.14,1q.67,4.27,1.3,8.54a49.8,49.8,0,0,1,.77,8.4L30.24,8.64Zm4.9-1.87L26.06,7.44l4.22.91ZM27.26,37.68,31.87,36l-4.18-.91Zm4.89-1.87,5-28.56L32.26,9,27.74,34.85ZM36.86,7.06,31,5.81,30.58,8.4l1.58.34Z"/></g></g></svg>