<svg xmlns="http://www.w3.org/2000/svg" viewBox="0 0 25.63 38.3"><defs><style>.cls-1{fill:#ffffff;}</style></defs><title>Asset 30</title><g id="Layer_2" data-name="Layer 2"><g id="Layer_1-2" data-name="Layer 1"><path class="cls-1" d="M18.38,2.78l7.25,1.54L19.15,19.78l5.9,16.61-.14,0-5.23,1.87,0,.1-7.44-1.58-.62-2.3L8,35.71l0,.1L.58,34.22,6.43,20.16,0,1.92,5.33,0V0l0,0,0,0,0,0,7.25,1.54.86,2.88Zm-18-.43L6.67,20l5.09-1.82L10,13.34h0v0a2.78,2.78,0,0,0-.14-.34h0Q9.55,12,6.62,3.65Zm5-2L.58,2.06l5.9,1.25Zm1.3,19.92L1.06,33.84l5-1.78,5.66-13.54ZM1.3,34.08l6.43,1.34.72-2.59-2.3-.48ZM12,1.78,5.81.43l1.06,3,.34,0Zm2.83,23.81-1.39-3.94L19.82,6.48,17.42,6l-2.06,5.52h0l-5,1.78,1.82,5L6.34,32.11l2.16.43,1.44-5.18h0v0ZM7.78,6,7.1,3.79,7,3.74ZM13.3,4.61l-.82-2.69-5,1.82Q8.21,6.67,10,12.34L12.91,4.7h0ZM8.06,35.33l3.5-1.25-.19-.58-2.64-.58Zm3.22-2.16L10,28.42,8.83,32.64Zm3.84-6.91L15,25.87l-4.9,1.78,1.58,5.57,1.39.29ZM10.18,12.82l0,.1,5-1.78-1.78-6L13.1,5Zm2.4,20.93-.82-.19.1.43Zm-.62.53.58,2.11,5.09-1.78Q16.9,32,15.26,26.78l-2,7.1-.14,0ZM13,36.58l6.24,1.3-1.06-2.93-.38-.1ZM18.1,3.22,13.68,4.8v0l3.55.77Zm-4.32,2,1.58,5.33L17.09,5.9ZM24.58,36,18.91,20l-5,1.82,1.3,3.7.14,0,0-.1.86,3.17q.34.91,2.21,6.14ZM18.86,19.68,25.1,4.75,20.16,6.53,13.92,21.46ZM17.42,32.83l.48,1.73H18ZM20.11,6.19l4.8-1.68L18.48,3.12l-1,2.54Zm-.53,31.73,4.75-1.68L18.53,35Z"/></g></g></svg>