<svg xmlns="http://www.w3.org/2000/svg" viewBox="0 0 20.93 37.49"><defs><style>.cls-1{fill:#ffffff;}</style></defs><title>Asset 32</title><g id="Layer_2" data-name="Layer 2"><g id="Layer_1-2" data-name="Layer 1"><path class="cls-1" d="M20.93,35.62h-.1L15.5,37.49,1.1,34.37V29.81L7.73,9.5,0,7.87v-6H0L5.42,0,20.16,3.12V8.64l-7,19.2,7.73,1.63ZM5.38,5.71V3.31L.29,2.26V7.54Zm0-5.38L.67,2l4.7,1ZM.72,7.68,8.11,9.26l4.8-1.68L5.47,6ZM1.39,34l5.09-1.78V28.18L1.39,30ZM8,9.65l-6.53,20,5-1.78,6.58-20ZM1.82,34.22,15.26,37.1V34.42L6.58,32.5ZM19.49,3.31,5.66.38V3.07L14.74,5ZM5.66,5.76l7.87,1.63L6.77,28v4.27l8.5,1.82v-2.5L7.39,30l7.1-19.49V5.28L5.66,3.41Zm7.2,22L19.73,8.93l-5,1.78L7.87,29.57Zm7.44,1.87L13,28.08l-4.8,1.68,7.34,1.58ZM19.87,3.5,14.78,5.33v5l5.09-1.78ZM15.55,31.68v2.45l5.09,1.1V29.86Zm0,5.47,4.7-1.68-4.7-1Z"/></g></g></svg>